<?xml version="1.0" encoding="UTF-8" standalone="no"?>
<svg width="444px" height="563px" viewBox="0 0 444 563" version="1.1" xmlns="http://www.w3.org/2000/svg" xmlns:xlink="http://www.w3.org/1999/xlink">
    <!-- Generator: Sketch 39.1 (31720) - http://www.bohemiancoding.com/sketch -->
    <title>Arm</title>
    <desc>Created with Sketch.</desc>
    <defs>
        <polygon id="path-1" points="7.9541505e-20 0.296932109 7.9541505e-20 70.5641516 70.266268 70.5641516 70.266268 0.296932109 0 0.296932109"></polygon>
        <polygon id="path-3" points="0 562.107599 443.632648 562.107599 443.632648 0 0 0"></polygon>
    </defs>
    <g id="Page-1" stroke="none" stroke-width="1" fill="none" fill-rule="evenodd">
        <g id="Full-Home-(New-Engage-Section)" transform="translate(-320.000000, -4871.000000)">
            <g id="Arm" transform="translate(320.000000, 4871.000000)">
                <g id="Group-3" transform="translate(0.000000, 34.947797)">
                    <mask id="mask-2" fill="white">
                        <use xlink:href="#path-1"></use>
                    </mask>
                    <g id="Clip-2"></g>
                    <path d="M5.52460938,5.82206861 C-0.658516065,12.0052346 -1.82940693,20.8618055 2.9128478,25.6040913 L44.9592746,67.6507938 C49.7015294,72.3930796 58.5580422,71.2221811 64.7411677,65.0390151 C70.9242931,58.8558491 72.095184,49.9992782 67.3529292,45.2569924 L25.3065024,3.21028991 C20.5642477,-1.5319959 11.7077348,-0.361097363 5.52460938,5.82206861" id="Fill-1" fill="#EDC098" mask="url(#mask-2)"></path>
                </g>
                <path d="M170.733495,217.771282 L232.250752,282.584478 L186.873595,338.822823 C186.873595,338.822823 116.077249,317.91392 60.3205411,246.750287 C4.56383326,175.586654 84.5130832,104.423021 122.304393,120.196403 C160.095703,135.969786 180.270827,145.50718 170.733495,217.771282" id="Fill-4" fill="#EDC098"></path>
                <path d="M141.699217,257.266071 L38.8398292,257.266071 C31.7235126,257.266071 25.9541606,251.496681 25.9541606,244.380318 L25.9541606,12.8857531 C25.9541606,5.7693898 31.7235126,0 38.8398292,0 L141.699217,0 C148.815534,0 154.584886,5.7693898 154.584886,12.8857531 L154.584886,244.380318 C154.584886,251.496681 148.815534,257.266071 141.699217,257.266071" id="Fill-6" fill="#FEFEFE"></path>
                <path d="M104.61367,22.4994464 L82.281641,22.4994464 C81.5362619,22.4994464 80.9288072,21.8949223 80.9288072,21.1466037 C80.9288072,20.3982851 81.5362619,19.793761 82.281641,19.793761 L104.61367,19.793761 C105.361984,19.793761 105.966504,20.3982851 105.966504,21.1466037 C105.966504,21.8949223 105.361984,22.4994464 104.61367,22.4994464" id="Fill-8" fill="#D1D2D4"></path>
                <path d="M75.9239091,22.4994464 L75.9239091,22.4994464 C75.1755954,22.4994464 74.5710753,21.8949223 74.5710753,21.1466037 C74.5710753,20.3982851 75.1755954,19.793761 75.9239091,19.793761 C76.6722228,19.793761 77.2767429,20.3982851 77.2767429,21.1466037 C77.2767429,21.8949223 76.6722228,22.4994464 75.9239091,22.4994464" id="Fill-10" fill="#D1D2D4"></path>
                <path d="M99.6557247,240.514005 C99.6557247,245.699413 95.4534296,249.901735 90.2680558,249.901735 C85.0856165,249.901735 80.8833215,245.699413 80.8833215,240.514005 C80.8833215,235.328597 85.0856165,231.126275 90.2680558,231.126275 C95.4534296,231.126275 99.6557247,235.328597 99.6557247,240.514005" id="Fill-12" fill="#D1D2D4"></path>
                <mask id="mask-4" fill="white">
                    <use xlink:href="#path-3"></use>
                </mask>
                <g id="Clip-15"></g>
                <polygon id="Fill-14" fill="#1293CB" mask="url(#mask-4)" points="35.6549474 222.799396 144.882338 222.799396 144.882338 35.2443395 35.6549474 35.2443395"></polygon>
                <path d="M247.032148,268.392835 C247.032148,268.392835 213.651488,248.217578 199.34549,218.87175 C199.34549,218.87175 208.516001,164.948791 191.642261,136.336609 C191.642261,136.336609 185.406313,100.754792 183.939032,82.4136498 C182.47175,64.0725072 181.004468,49.766416 176.969443,49.3995932 C172.934418,49.0327703 152.374866,50.8668846 154.584592,82.7804726 C156.794318,114.694061 158.646028,119.095935 150.752052,139.271192 C142.855142,159.446448 134.785092,213.73623 165.598009,232.077373 C196.410927,250.418516 219.520615,294.804081 219.520615,294.804081 L247.032148,268.392835 Z" id="Fill-16" fill="#EDC098" mask="url(#mask-4)"></path>
                <path d="M229.049143,238.271397 C224.35971,244.425217 131.316438,325.19374 131.316438,325.19374 L184.22075,383.374778 L274.31772,285.708928 L229.049143,238.271397 Z" id="Fill-17" fill="#FEFEFE" mask="url(#mask-4)"></path>
                <path d="M8.83919893,170.424429 C5.08295756,178.321392 6.94933999,187.057645 13.0062792,189.939405 L36.1981351,200.967567 C42.2550743,203.846393 50.2077416,199.779061 53.963983,191.882099 C57.7202243,183.985136 55.8538419,175.245949 49.7969027,172.367123 L26.6050468,161.338961 C20.5481076,158.460135 12.5954403,162.527467 8.83919893,170.424429" id="Fill-18" fill="#EDC098" mask="url(#mask-4)"></path>
                <path d="M6.86071617,205.600687 C3.1044748,213.497649 4.97085723,222.233902 11.0277964,225.115662 L34.2196523,236.143824 C40.2765916,239.02265 48.2292588,234.955318 51.9855002,227.058356 C55.7417416,219.161394 53.8753591,210.422206 47.8184199,207.54338 L24.626564,196.515218 C18.5696248,193.636392 10.6169575,197.703724 6.86071617,205.600687" id="Fill-19" fill="#EDC098" mask="url(#mask-4)"></path>
                <path d="M8.52696137,134.316442 C4.77072,142.213404 6.63710243,150.949657 12.6940416,153.831418 L35.8858975,164.85958 C41.9428367,167.738406 49.895504,163.671074 53.6517454,155.774112 C57.4079868,147.877149 55.5416043,139.137962 49.4846651,136.259136 L26.2928092,125.230974 C20.23587,122.352148 12.2832027,126.41948 8.52696137,134.316442" id="Fill-20" fill="#EDC098" mask="url(#mask-4)"></path>
                <path d="M144.881164,350.193157 C144.881164,350.193157 310.857145,527.066332 324.062681,542.070854 C337.268217,557.075376 394.627197,576.622632 419.937808,545.671587 C445.251353,514.720542 456.86929,473.510196 420.876868,436.246863 C384.88738,398.983531 249.853438,251.106969 249.853438,251.106969 L144.881164,350.193157 Z" id="Fill-21" fill="#1C5B7E" mask="url(#mask-4)"></path>
            </g>
        </g>
    </g>
</svg>