<?xml version="1.0" encoding="UTF-8" standalone="no"?>
<svg width="222px" height="248px" viewBox="0 0 222 248" version="1.1" xmlns="http://www.w3.org/2000/svg" xmlns:xlink="http://www.w3.org/1999/xlink">
    <!-- Generator: Sketch 3.8.3 (29802) - http://www.bohemiancoding.com/sketch -->
    <title>Page 1</title>
    <desc>Created with Sketch.</desc>
    <defs>
        <polygon id="path-1" points="221.874312 0.389313968 221.874312 134.362441 0 134.362441 0 0.389313968"></polygon>
    </defs>
    <g id="Page-1" stroke="none" stroke-width="1" fill="none" fill-rule="evenodd">
        <g id="Full-Home-(New-Engage-Section)" transform="translate(-571.000000, -2068.000000)">
            <g id="Page-1" transform="translate(571.000000, 2068.000000)">
                <path d="M152.439021,79.2576586 C163.081537,79.2576586 171.713533,70.6261962 171.713533,59.9865209 C171.713533,49.3449193 163.081537,40.7235702 152.439021,40.7235702 C141.806136,40.7235702 133.178956,49.3449193 133.178956,59.9865209 C133.178956,70.6261962 141.806136,79.2576586 152.439021,79.2576586" id="Fill-1" fill="#0192CA"></path>
                <g id="Group-5" transform="translate(0.000000, 113.229011)">
                    <mask id="mask-2" fill="white">
                        <use xlink:href="#path-1"></use>
                    </mask>
                    <g id="Clip-4"></g>
                    <path d="M220.296475,16.7054412 C216.776258,6.64270569 208.886831,0.389313968 199.728488,0.389313968 C193.687295,0.389313968 187.969711,3.31061348 184.042093,8.39375169 C180.448679,13.0405732 176.600037,21.6214691 178.678939,36.1446523 C182.454384,62.6371692 174.392557,90.0095434 164.880748,102.314542 C162.403113,105.529128 158.544839,109.359661 154.292649,109.359661 C148.118063,109.359661 142.332098,89.1518391 138.104466,74.393642 C133.053364,56.748338 128.608067,41.2326064 121.071625,37.3105716 C118.618549,35.9178254 114.779538,34.6440309 110.937156,34.6440309 C107.095256,34.6440309 103.255764,35.9178254 100.802688,37.3105716 C93.2672082,41.2326064 88.8209479,56.748338 83.769846,74.393642 C79.5426963,89.1518391 73.7562495,109.359661 67.5826269,109.359661 C63.330436,109.359661 59.4711996,105.529128 56.9940456,102.314542 C47.4817549,90.0095434 39.4199284,62.6371692 43.1953731,36.1446523 C45.2742755,21.6214691 41.4256334,13.0405732 37.8322191,8.39375169 C33.9046009,3.31061348 28.1870174,0.389313968 22.1458243,0.389313968 C12.9879631,0.389313968 5.09805423,6.64270569 1.57783731,16.7054412 C-7.0295987,41.2759491 22.323039,96.8596199 23.5712473,99.2270958 C36.3080759,123.005877 48.853243,134.362633 61.9290911,134.362633 L61.9392039,134.362633 C80.8746963,134.362633 94.6685531,109.742522 103.787408,93.3233354 C106.235668,88.9129725 108.860662,81.8389586 110.831694,81.8389586 C110.864922,81.8389586 110.899113,81.8485903 110.937156,81.8509982 C110.9752,81.8485903 111.009872,81.8389586 111.0431,81.8389586 C113.014132,81.8389586 115.639126,88.9129725 118.087386,93.3233354 C127.205759,109.742522 141.000098,134.362633 159.935108,134.362633 L159.945703,134.362633 C173.021069,134.362633 185.566236,123.005877 198.303065,99.2270958 C199.551755,96.8596199 228.903911,41.2759491 220.296475,16.7054412" id="Fill-3" fill="#0192CA" mask="url(#mask-2)"></path>
                </g>
                <path d="M69.4354842,79.2576586 C80.0683692,79.2576586 88.6955492,70.6261962 88.6955492,59.9865209 C88.6955492,49.3449193 80.0683692,40.7235702 69.4354842,40.7235702 C58.7929679,40.7235702 50.1609722,49.3449193 50.1609722,59.9865209 C50.1609722,70.6261962 58.7929679,79.2576586 69.4354842,79.2576586" id="Fill-6" fill="#0192CA"></path>
                <path d="M69.4947163,26.9350461 C79.7437965,26.9350461 88.9170677,31.592944 95.0078616,38.9120852 C99.7117575,44.6256192 102.572716,52.024222 102.572716,59.9867617 C102.572716,69.0959573 98.8468725,77.4659186 92.8639484,83.4178376 C86.9012499,89.3933544 78.5447076,93.1357577 69.4354842,93.1294971 C60.3166295,93.1357577 51.9552716,89.3933544 46.0017228,83.4178376 C42.275879,79.7086638 39.4245514,75.0603975 37.8026512,69.8814237 C36.8491588,66.7891613 36.3377401,63.5057092 36.3377401,60.1023423 C36.3377401,41.7780023 51.183328,26.9350461 69.4947163,26.9350461 M110.831502,89.7468383 C110.864729,89.7940338 110.899402,89.8388212 110.937445,89.8855351 C110.975489,89.8388212 111.009679,89.7940338 111.042907,89.7468383 C114.228439,94.1827252 118.102122,98.087423 122.521415,101.296229 C122.221402,102.287814 121.272725,104.921607 118.878881,108.169903 C118.504708,108.638005 118.106938,109.11622 117.664382,109.607919 C114.370981,113.26171 112.257406,115.084512 111.042907,115.084512 C111.009679,115.084512 110.975489,115.078252 110.937445,115.076326 C110.899402,115.078252 110.864729,115.084512 110.831502,115.084512 C109.617003,115.084512 107.503428,113.26171 104.210026,109.607919 C103.767471,109.11622 103.369701,108.638005 102.995528,108.169903 C100.601684,104.921607 99.6530069,102.287814 99.3529939,101.296229 C103.772768,98.087423 107.646452,94.1827252 110.831502,89.7468383 M126.867029,38.9120852 C132.957341,31.592944 142.130612,26.9350461 152.379692,26.9350461 C170.691081,26.9350461 185.536669,41.7780023 185.536669,60.1023423 C185.536669,63.5057092 185.02525,66.7891613 184.071757,69.8814237 C182.449857,75.0603975 179.59853,79.7086638 175.872204,83.4178376 C169.919137,89.3933544 161.557779,93.1357577 152.438925,93.1294971 C143.329701,93.1357577 134.973159,89.3933544 129.01046,83.4178376 C123.027536,77.4659186 119.301692,69.0959573 119.301692,59.9867617 C119.301692,52.024222 122.162651,44.6256192 126.867029,38.9120852 M21.9587857,41.102819 C20.1302954,47.2049928 18.4544603,53.4164865 18.4592759,59.9867617 C18.4544603,70.4347658 21.6891111,80.411779 27.1846946,88.5062733 C32.1447813,95.8432331 38.9280612,101.787447 46.965328,105.741266 C47.171918,105.84577 47.378508,105.947867 47.5899137,106.049963 C47.7815753,106.139538 47.9732369,106.230557 48.16538,106.318206 C54.653944,109.320412 61.8754451,110.997775 69.4947163,110.997775 C76.5091458,110.997775 83.1898529,109.573244 89.2758312,107.000132 L89.25079,107.013616 C89.4477488,107.427298 89.6447076,107.830867 89.8460004,108.228657 C97.4994625,124.509628 108.069263,127.066849 110.831502,127.066849 C110.864729,127.066849 110.899402,127.064923 110.937445,127.064923 C110.975489,127.064923 111.009679,127.066849 111.042907,127.066849 C113.805627,127.066849 124.374946,124.509628 132.028408,108.228657 C132.229701,107.830867 132.427141,107.427298 132.623619,107.013616 L132.598577,107.000132 C138.684556,109.573244 145.365263,110.997775 152.379692,110.997775 C159.998964,110.997775 167.220465,109.320412 173.709029,106.318206 C173.901172,106.230557 174.092833,106.139538 174.284495,106.049963 C174.495901,105.947867 174.702491,105.84577 174.908599,105.741266 C182.946348,101.787447 189.730109,95.8432331 194.689714,88.5062733 C200.185779,80.411779 203.42043,70.4347658 203.415614,59.9867617 C203.42043,53.4164865 201.744113,47.2049928 199.915623,41.102819 C199.001137,37.3069597 198.150699,32.8652938 197.767376,28.0523252 C196.407445,10.6169926 202.95476,2.34671949 199.685918,0.402557577 C199.620426,0.353917411 199.480291,0.267231965 199.212061,0.169470046 C198.856187,0.0404050493 198.475753,0.011028315 198.379441,0.00524928531 C198.36981,0.0042861137 198.361623,0.00187818465 198.351992,0.000433427228 C198.351992,0.000433427228 197.523224,-0.0197931767 196.799918,0.246523775 L196.8004,0.245560604 C196.8004,0.245560604 196.793658,0.247968533 196.790768,0.248931704 C196.787879,0.250376462 196.78499,0.251339633 196.7821,0.252302805 C196.595254,0.321651161 194.530317,1.05462476 194.236083,1.14034704 C188.214152,2.89861682 172.093389,6.35158707 155.781927,8.267817 C136.403397,10.5447547 116.57846,11.0417513 111.042907,10.9651791 C111.009679,10.9666239 110.975489,10.9666239 110.937445,10.967587 C110.899402,10.9666239 110.864729,10.9666239 110.831502,10.9651791 C105.29643,11.0417513 85.4710113,10.5447547 66.0929636,8.267817 C49.78102,6.35158707 33.6597748,2.89861682 27.6383258,1.14034704 C27.3440915,1.05462476 25.279636,0.321651161 25.0923085,0.252302805 C25.0894191,0.251339633 25.0865297,0.250376462 25.0836403,0.248931704 C25.0812325,0.247968533 25.0740091,0.245560604 25.0740091,0.245560604 L25.0744907,0.246523775 C24.3511848,-0.0197931767 23.5224169,0.000433427228 23.5224169,0.000433427228 C23.5127857,0.00187818465 23.5045991,0.0042861137 23.4954495,0.00524928531 C23.3986555,0.011028315 23.0182217,0.0404050493 22.6623475,0.169470046 C22.3941176,0.267231965 22.2539831,0.353917411 22.1884907,0.402557577 C18.9201306,2.34671949 25.4669636,10.6169926 24.107033,28.0523252 C23.7237098,32.8652938 22.8737531,37.3069597 21.9587857,41.102819" id="Fill-8" fill="#0192CA"></path>
            </g>
        </g>
    </g>
</svg>