<?xml version="1.0" encoding="UTF-8" standalone="no"?>
<svg width="61px" height="84px" viewBox="0 0 61 84" version="1.1" xmlns="http://www.w3.org/2000/svg" xmlns:xlink="http://www.w3.org/1999/xlink">
    <!-- Generator: Sketch 3.8.3 (29802) - http://www.bohemiancoding.com/sketch -->
    <title>Page 1</title>
    <desc>Created with Sketch.</desc>
    <defs>
        <polygon id="path-1" points="60.9654642 36.661642 60.9654642 0.0344821317 0 0.0344821317 0 36.661642 60.9654642 36.661642"></polygon>
        <polygon id="path-3" points="50.8652829 0.044369906 0.043940973 0.044369906 0.043940973 34.783294 50.8652829 34.783294 50.8652829 0.044369906"></polygon>
    </defs>
    <g id="Page-1" stroke="none" stroke-width="1" fill="none" fill-rule="evenodd">
        <g id="Full-Home-(New-Engage-Section)" transform="translate(-31.000000, -31.000000)">
            <g id="Page-1" transform="translate(31.000000, 31.000000)">
                <path d="M17.375539,76.0723223 C17.2241638,75.935131 17.020257,75.8746984 16.8189967,75.876015 C16.6448623,75.8753567 16.4678167,75.9223599 16.3233221,76.029269 C16.181474,76.1360464 16.0881876,76.2899586 16.0342007,76.4580903 L14.4066518,81.4618834 L12.7708991,76.4782345 L12.7695759,76.4782345 C12.7128102,76.2987799 12.5953091,76.1421028 12.4385087,76.0379586 C12.2818406,75.9311812 12.0955325,75.8753567 11.9063134,75.876015 C11.7172267,75.8753567 11.5294631,75.9311812 11.3742505,76.0379586 C11.2175824,76.1421028 11.0986258,76.2987799 11.0433156,76.4782345 L11.0405369,76.4782345 L9.40346095,81.4618834 L7.77723536,76.4580903 C7.72311605,76.2873254 7.62321367,76.1313066 7.47594035,76.0258458 C7.32866703,75.9205166 7.14910738,75.876015 6.97073861,75.876015 C6.77622668,75.8733818 6.57906833,75.9405292 6.43589696,76.0723223 L6.43722017,76.070874 C6.30357592,76.1864727 6.202218,76.3611875 6.20354121,76.5520966 C6.20354121,76.6696702 6.21703796,76.7831624 6.24945662,76.8921781 L6.25223536,76.8987611 L8.47417028,83.2896075 L8.47549349,83.2909241 C8.54985792,83.4898646 8.66868221,83.663921 8.83487744,83.7828113 C9.00094035,83.9024915 9.2063026,83.9562094 9.41417896,83.9555511 C9.62364317,83.9562094 9.82622668,83.8903787 9.99639154,83.7693818 C10.1666887,83.6511498 10.2949078,83.4792 10.3570987,83.2822345 L10.3584219,83.2822345 L11.9063134,78.6937016 L13.4528818,83.2822345 C13.5163959,83.4792 13.6447473,83.6511498 13.8150445,83.7693818 C13.9838861,83.8903787 14.1877928,83.9562094 14.3971247,83.9555511 C14.6051334,83.9562094 14.8090401,83.9024915 14.9752354,83.7828113 C15.1427538,83.663921 15.2602549,83.4898646 15.3359425,83.2909241 L15.3372657,83.2896075 L17.5605239,76.8987611 L17.5633026,76.8921781 C17.5916193,76.7831624 17.6078948,76.6696702 17.6078948,76.5520966 C17.609218,76.3611875 17.5065369,76.1864727 17.375539,76.070874 L17.375539,76.0723223 Z" id="Fill-1" fill="#0192CA"></path>
                <path d="M24.5020195,75.8759755 C24.3710217,75.8759755 24.2372451,75.9103392 24.123846,75.9755116 C24.0117701,76.0400257 23.9184837,76.1327154 23.8427961,76.2383078 L21.7087223,79.1399944 L19.5799414,76.2383078 L19.5786182,76.2383078 C19.5029306,76.1327154 19.4097766,76.0400257 19.2975683,75.9755116 C19.1841692,75.9103392 19.0518482,75.8759755 18.9180716,75.8759755 C18.7006681,75.8746589 18.4777072,75.9404897 18.321039,76.1004583 C18.1860716,76.2350163 18.0995336,76.4271103 18.1023124,76.6206527 C18.1023124,76.7886527 18.1467722,76.9566527 18.2413818,77.0964771 L18.2468069,77.1058251 L20.8995792,80.584847 L20.8995792,83.1895053 C20.8956095,83.3971354 20.9900868,83.6067404 21.1482104,83.7424834 L21.1495336,83.7452483 C21.3007766,83.8816495 21.5048156,83.9582765 21.7087223,83.9555116 C21.9139523,83.9582765 22.1220933,83.8816495 22.2718807,83.7403768 L22.2718807,83.7398502 C22.423256,83.6021323 22.5150868,83.3943705 22.5096616,83.1895053 L22.5096616,80.5855053 L25.1747397,77.1058251 L25.1800325,77.0964771 C25.2719957,76.9566527 25.3179111,76.7886527 25.3165879,76.6206527 C25.3192343,76.4271103 25.2354751,76.2350163 25.0990521,76.1004583 C24.9437072,75.9404897 24.719423,75.8746589 24.5020195,75.8759755" id="Fill-3" fill="#0192CA"></path>
                <path id="Fill-5" fill="#0192CA"></path>
                <path d="M32.2634028,82.635079 C32.1189082,82.4980194 31.9189711,82.4220508 31.7203573,82.424684 L27.9140102,82.424684 L32.1783204,77.4875116 L32.1783204,77.4867216 C32.336444,77.318195 32.4322445,77.091079 32.429598,76.8598815 C32.4322445,76.6219693 32.3349885,76.3920884 32.1717043,76.2188219 L32.1702488,76.2175053 C31.9905568,76.0192232 31.7218128,75.9264019 31.4489668,75.9285085 L26.5335048,75.9285085 C26.3322445,75.9264019 26.129661,76.0056621 25.9864896,76.149568 C25.8433182,76.2859693 25.755457,76.4849097 25.7569126,76.6838502 C25.7541338,76.8827906 25.8433182,77.0843643 25.9905915,77.217474 C26.1350861,77.3557185 26.3363464,77.4311605 26.5335048,77.4283956 L30.2601946,77.4283956 L25.9418974,82.4186276 L25.9405742,82.4213925 C25.8015048,82.5820194 25.7353443,82.7950476 25.7353443,83.0100508 C25.7325655,83.2499379 25.8405395,83.4825837 26.0189082,83.6443956 C26.1944983,83.8130539 26.4362488,83.9045586 26.6807781,83.902452 L31.7203573,83.902452 C31.9176479,83.9045586 32.1149386,83.8345147 32.2607564,83.7008784 C32.4119993,83.5705335 32.5011837,83.3675116 32.4972141,83.1687028 C32.5011837,82.9697624 32.4119993,82.7681887 32.2634028,82.635079" id="Fill-7" fill="#0192CA"></path>
                <path id="Fill-9" fill="#0192CA"></path>
                <path d="M25.858213,77.2174082 L25.852713,77.2174082 L25.858213,77.2174082 Z" id="Fill-11" fill="#0192CA"></path>
                <polygon id="Fill-13" fill="#0192CA" points="39.0605794 83.6947956 39.0455794 83.7177956 39.0400794 83.7177956"></polygon>
                <polygon id="Fill-15" fill="#0192CA" points="33.3564013 76.1590442 33.3564013 76.1590442 33.3564013 76.1535442"></polygon>
                <path d="M38.6321336,77.4082119 C38.829292,77.4096602 39.0279059,77.3384313 39.1724004,77.2066382 C39.3250989,77.0762934 39.4128278,76.8719549 39.4101813,76.6730144 C39.4128278,76.4753906 39.3250989,76.2738169 39.1765024,76.1400489 L39.1765024,76.1393906 C39.0320078,76.002331 38.8320707,75.9263624 38.6321336,75.928469 L34.092331,75.928469 C33.8856456,75.9263624 33.6749905,76.0064125 33.5291727,76.1549266 C33.3791206,76.2954094 33.2899362,76.5009329 33.292715,76.7052715 L33.292715,83.1370646 C33.288613,83.3419298 33.3805761,83.5490332 33.5318191,83.6867511 C33.6802833,83.8285505 33.8871011,83.9045191 34.092331,83.9024125 L38.6321336,83.9024125 C38.8279688,83.9045191 39.0279059,83.8353969 39.173856,83.7008389 C39.3250989,83.570494 39.4128278,83.3676038 39.4101813,83.1686633 C39.4128278,82.9703812 39.3250989,82.7681492 39.1765024,82.6350395 C39.0320078,82.4973216 38.8320707,82.4220113 38.6321336,82.4247762 L34.9041206,82.4247762 L34.9041206,80.6499799 L38.2256434,80.6499799 C38.4228017,80.6520865 38.6199601,80.5808577 38.764587,80.4484063 C38.9156976,80.3180614 39.0063375,80.1151712 39.0022356,79.9154408 C39.004882,79.7165003 38.9171531,79.5162433 38.7713354,79.3824752 L38.7698798,79.3824752 C38.624062,79.2454157 38.4255805,79.1687887 38.2256434,79.1716853 L34.9041206,79.1716853 L34.9041206,77.4082119 L38.6321336,77.4082119 Z" id="Fill-17" fill="#0192CA"></path>
                <polygon id="Fill-19" fill="#0192CA" points="40.2316571 76.1590442 40.2316571 76.1590442 40.2316571 76.1535442"></polygon>
                <g id="Group-23" transform="translate(40.225597, 75.924282)" fill="#0192CA">
                    <path d="M4.94544599,1.80382759 C5.05765423,1.88321944 5.13453275,1.97380251 5.18851974,2.08610972 C5.24118351,2.19894357 5.27360217,2.34074295 5.27360217,2.51953918 C5.27360217,2.70426019 5.23456746,2.84882445 5.1656282,2.97311285 C5.09536573,3.09674295 4.99003818,3.20286207 4.83204685,3.29963323 C4.50375835,3.49725705 4.04579523,3.60745768 3.44611627,3.60745768 L1.68743731,3.60745768 L1.68743731,1.49402821 L3.38935054,1.49402821 C4.14305119,1.49205329 4.66585163,1.61568339 4.94544599,1.80382759 M6.46502082,3.75333856 C6.73932234,3.3574326 6.88514013,2.91189028 6.8836846,2.44488715 C6.88910976,1.73523197 6.59337223,1.11563323 6.03947636,0.682203762 L6.03682993,0.681545455 L6.03682993,0.68022884 C5.43304902,0.21454232 4.58473883,0.00559561129 3.51492321,0.00414733542 L0.875647722,0.00414733542 C0.669094577,0.00204075235 0.458307158,0.0820909091 0.311166161,0.230736677 C0.1611141,0.371087774 0.0745761388,0.576742947 0.0773548807,0.780949843 L0.0773548807,7.2651442 C0.0733852495,7.47014107 0.163760521,7.67777116 0.315135792,7.81548903 C0.463732321,7.9572884 0.670285466,8.03391536 0.875647722,8.03128213 C1.08100998,8.03391536 1.28756312,7.9572884 1.43893839,7.81957053 L1.44568677,7.8128558 L1.43893839,7.81825392 C1.59692972,7.68237931 1.69008373,7.47290596 1.68743731,7.2651442 L1.68743731,5.09523197 L3.7418538,5.09523197 C4.13775835,5.09523197 4.41060434,5.17185893 4.5738885,5.28416614 L4.5738885,5.28350784 C4.76588633,5.41635423 4.91712928,5.58777743 5.03317484,5.817 C5.13453275,6.01120063 5.20744165,6.39894357 5.20611844,6.94731348 L5.20611844,7.2651442 C5.20347202,7.46948276 5.28458482,7.67987774 5.4397974,7.82088715 C5.58971714,7.96400313 5.79904902,8.03391536 6.00586681,8.03128213 C6.21374317,8.03391536 6.42453059,7.96005329 6.57709675,7.81614734 L6.57709675,7.81548903 C6.73111844,7.67777116 6.82030282,7.47014107 6.81620087,7.2651442 L6.81620087,6.77799687 C6.81620087,6.2732069 6.73244165,5.79817241 6.55830716,5.35934483 L6.55830716,5.35802821 C6.42453059,5.02610972 6.2435154,4.74711912 6.01115965,4.52803448 C5.94632234,4.46628527 5.87341345,4.41125078 5.79904902,4.35937618 C6.06660217,4.19756426 6.29485597,3.99994044 6.46502082,3.75333856" id="Fill-21"></path>
                </g>
                <path d="M52.8249811,77.7018828 C52.9342783,77.7811429 53.0112892,77.8718577 53.0667317,77.9841649 C53.1193954,78.0969987 53.1504909,78.2387981 53.1504909,78.4175944 C53.1504909,78.6023154 53.1126471,78.746748 53.0425169,78.871168 C52.9721221,78.9947981 52.8681178,79.1009172 52.7101265,79.1976884 C52.3806471,79.3953122 51.9238748,79.5055129 51.3241959,79.5055129 L49.5655169,79.5055129 L49.5655169,77.392215 L51.2674302,77.392215 C52.0212631,77.3901085 52.5439312,77.5137386 52.8249811,77.7018828 L52.8249811,77.7018828 Z M54.4363868,81.2560834 L54.433608,81.2560834 C54.3026102,80.9241649 54.1202718,80.6451743 53.8893716,80.4260897 C53.8217555,80.3643404 53.7501698,80.309306 53.6759377,80.2574313 C53.9433586,80.0956194 54.1716124,79.8979956 54.3432328,79.6513937 C54.617402,79.2554878 54.7632197,78.8099455 54.7618965,78.3429423 C54.7673217,77.6332871 54.4701286,77.0136884 53.9176883,76.5803906 L53.9149095,76.5796006 L53.9149095,76.578284 C53.311261,76.1125975 52.4629508,75.9036508 51.3918119,75.9022025 L48.7551829,75.9022025 C48.5471742,75.9000959 48.3378423,75.9801461 48.1892458,76.1287918 C48.0419725,76.2691429 47.9514649,76.4747981 47.9554345,76.6791367 L47.9554345,83.1631994 C47.9501416,83.3681962 48.0419725,83.5758263 48.1946709,83.7135442 C48.3431351,83.8553436 48.5484974,83.9319705 48.7551829,83.9293373 C48.9604128,83.9319705 49.1670983,83.8553436 49.3183412,83.7176257 L49.3183412,83.7163091 C49.4738184,83.5804345 49.5709421,83.3709611 49.5655169,83.1631994 L49.5655169,80.9932871 L51.6174193,80.9932871 C52.015838,80.9932871 52.2886839,81.0699141 52.4507772,81.1822213 L52.4507772,81.181563 C52.6452892,81.3145411 52.7938857,81.4858326 52.9113868,81.7151868 C53.0127447,81.9092558 53.0856536,82.2969987 53.0828748,82.8453687 L53.0828748,83.1631994 C53.0802284,83.3675379 53.1613412,83.5779329 53.3166861,83.7189423 C53.4677967,83.8620583 53.6759377,83.9319705 53.8811677,83.9293373 C54.0919551,83.9319705 54.3026102,83.8581085 54.4553087,83.7142025 L54.4553087,83.7135442 C54.6080072,83.5758263 54.6983824,83.3681962 54.6944128,83.1631994 L54.6944128,82.676052 C54.6944128,82.1712621 54.609198,81.6962276 54.4363868,81.2574 L54.4363868,81.2560834 Z" id="Fill-24" fill="#0192CA"></path>
                <polygon id="Fill-26" fill="#0192CA" points="48.1996068 76.1590442 48.1996068 76.1590442 48.1996068 76.1535442"></polygon>
                <path d="M41.8863976,21.7999618 C44.8106926,21.7999618 47.1825473,19.4401937 47.1825473,16.5313975 C47.1825473,13.6220746 44.8106926,11.2650715 41.8863976,11.2650715 C38.964749,11.2650715 36.5942176,13.6220746 36.5942176,16.5313975 C36.5942176,19.4401937 38.964749,21.7999618 41.8863976,21.7999618" id="Fill-28" fill="#0192CA"></path>
                <g id="Group-32" transform="translate(0.000000, 31.159392)">
                    <mask id="mask-2" fill="white">
                        <use xlink:href="#path-1"></use>
                    </mask>
                    <g id="Clip-31"></g>
                    <path d="M60.5319143,4.49517179 C59.5646475,1.74397429 57.3968319,0.0344821317 54.8803503,0.0344821317 C53.2203829,0.0344821317 51.6493351,0.833140439 50.5701247,2.22282696 C49.5827451,3.49322821 48.5252354,5.83917179 49.0964653,9.80968589 C50.1338623,17.0525135 47.9186757,24.5358865 45.3050705,27.899968 C44.6242787,28.7788082 43.5641226,29.8260433 42.3957278,29.8260433 C40.6991074,29.8260433 39.1092701,24.3013975 37.9476236,20.2666326 C36.5597082,15.4424257 35.3382527,11.200689 33.2674284,10.1284382 C32.593385,9.74767335 31.5385217,9.39942884 30.4827321,9.39942884 C29.4270748,9.39942884 28.3720792,9.74767335 27.6980358,10.1284382 C25.6274761,11.200689 24.405756,15.4424257 23.0178406,20.2666326 C21.8563265,24.3013975 20.2663568,29.8260433 18.5700011,29.8260433 C17.4016063,29.8260433 16.3411855,28.7788082 15.660526,27.899968 C13.0467885,24.5358865 10.831602,17.0525135 11.8689989,9.80968589 C12.4402289,5.83917179 11.3827191,3.49322821 10.3953395,2.22282696 C9.31612907,0.833140439 7.74508134,0.0344821317 6.08511388,0.0344821317 C3.56876464,0.0344821317 1.4008167,1.74397429 0.433549892,4.49517179 C-1.9315564,11.2125386 6.13380803,26.4086389 6.47678416,27.0558865 C9.97654338,33.5568019 13.4236388,36.661642 17.0165521,36.661642 L17.0193308,36.661642 C22.2223265,36.661642 26.0125304,29.9307141 28.5181616,25.4418489 C29.1908818,24.2360934 29.9121638,22.3021185 30.4537538,22.3021185 C30.4628839,22.3021185 30.4722787,22.3047517 30.4827321,22.30541 C30.4931855,22.3047517 30.5027126,22.3021185 30.5118427,22.3021185 C31.0534328,22.3021185 31.7747148,24.2360934 32.4474349,25.4418489 C34.9529338,29.9307141 38.7432701,36.661642 43.9461334,36.661642 L43.9490445,36.661642 C47.5418254,36.661642 50.9889208,33.5568019 54.48868,27.0558865 C54.8317885,26.4086389 62.8970206,11.2125386 60.5319143,4.49517179" id="Fill-30" fill="#0192CA" mask="url(#mask-2)"></path>
                </g>
                <path d="M19.0791195,21.7999618 C22.0007681,21.7999618 24.3712996,19.4401937 24.3712996,16.5313975 C24.3712996,13.6220746 22.0007681,11.2650715 19.0791195,11.2650715 C16.1548245,11.2650715 13.7829698,13.6220746 13.7829698,16.5313975 C13.7829698,19.4401937 16.1548245,21.7999618 19.0791195,21.7999618" id="Fill-33" fill="#0192CA"></path>
                <g id="Group-37" transform="translate(5.028200, 0.087292)">
                    <mask id="mask-4" fill="white">
                        <use xlink:href="#path-3"></use>
                    </mask>
                    <g id="Clip-36"></g>
                    <path d="M14.0671954,7.40811536 C16.8833842,7.40811536 19.4039677,8.68154483 21.0775642,10.6825354 C22.3700761,12.2445668 23.1561954,14.2672815 23.1561954,16.4441718 C23.1561954,18.934548 22.1324275,21.2228238 20.4884709,22.8500276 C18.8500718,24.4836828 16.5539048,25.5068238 14.05092,25.5051122 C11.5452887,25.5068238 9.24779848,24.4836828 7.61191345,22.8500276 C6.58814555,21.8359712 5.80467267,20.5651749 5.3590154,19.1492878 C5.09701974,18.3038897 4.95649479,17.4062219 4.95649479,16.4757705 C4.95649479,11.4660527 9.03568785,7.40811536 14.0671954,7.40811536 M25.4255013,24.5803223 C25.4346315,24.5932251 25.4441586,24.6054696 25.4546119,24.6182408 C25.4650653,24.6054696 25.4744601,24.5932251 25.4835902,24.5803223 C26.3588939,25.7930558 27.4232844,26.8605668 28.6375946,27.737827 C28.5551586,28.0089179 28.2944861,28.7289743 27.6367182,29.6170307 C27.5339048,29.7450056 27.4246076,29.8757455 27.3030046,30.0101718 C26.398061,31.0090871 25.8173039,31.5074257 25.4835902,31.5074257 C25.4744601,31.5074257 25.4650653,31.5057141 25.4546119,31.5051875 C25.4441586,31.5057141 25.4346315,31.5074257 25.4255013,31.5074257 C25.0917876,31.5074257 24.5110306,31.0090871 23.606087,30.0101718 C23.4844839,29.8757455 23.3751868,29.7450056 23.2723733,29.6170307 C22.6146054,28.7289743 22.353933,28.0089179 22.271497,27.737827 C23.4859395,26.8605668 24.5503299,25.7930558 25.4255013,24.5803223 M29.8316597,10.6825354 C31.5051239,8.68154483 34.0257074,7.40811536 36.8418961,7.40811536 C41.8734037,7.40811536 45.9525967,11.4660527 45.9525967,16.4757705 C45.9525967,17.4062219 45.8120718,18.3038897 45.5500761,19.1492878 C45.1044189,20.5651749 44.320946,21.8359712 43.2970458,22.8500276 C41.6612931,24.4836828 39.3638028,25.5068238 36.8581716,25.5051122 C34.3551868,25.5068238 32.0590197,24.4836828 30.4206206,22.8500276 C28.776664,21.2228238 27.7528961,18.934548 27.7528961,16.4441718 C27.7528961,14.2672815 28.5390154,12.2445668 29.8316597,10.6825354 M1.00552082,11.2814633 C0.503097831,12.9497455 0.0426206074,14.6479147 0.0439438178,16.4441718 C0.0426206074,19.3005668 0.931421041,22.0281969 2.44146876,24.2411624 C3.80437549,26.2470245 5.66824967,27.8721216 7.87668785,28.9530621 C7.93345358,28.9816326 7.99021931,29.0095448 8.04830824,29.0374571 C8.10097202,29.0619461 8.15363579,29.0868301 8.20643189,29.1107925 C9.9893256,29.9315699 11.9736119,30.3901467 14.0671954,30.3901467 C15.9945837,30.3901467 17.8302735,30.0006922 19.5025469,29.2972251 L19.4956662,29.3009116 C19.5497855,29.4140088 19.6039048,29.5243411 19.659215,29.6330934 C21.7621933,34.0841718 24.6665078,34.783294 25.4255013,34.783294 C25.4346315,34.783294 25.4441586,34.7828991 25.4546119,34.7827674 C25.4650653,34.7828991 25.4744601,34.783294 25.4835902,34.783294 C26.2427161,34.783294 29.1468983,34.0841718 31.2498766,29.6330934 C31.3051868,29.5243411 31.3594384,29.4140088 31.4134254,29.3009116 L31.4065447,29.2972251 C33.078818,30.0006922 34.9145078,30.3901467 36.8418961,30.3901467 C38.9354796,30.3901467 40.9197659,29.9315699 42.7026597,29.1107925 C42.7554557,29.0868301 42.8081195,29.0619461 42.8607833,29.0374571 C42.9188722,29.0095448 42.975638,28.9816326 43.0322714,28.9530621 C45.2408419,27.8721216 47.1048484,26.2470245 48.4676228,24.2411624 C49.9778028,22.0281969 50.8666033,19.3005668 50.86528,16.4441718 C50.8666033,14.6479147 50.4059937,12.9497455 49.9035707,11.2814633 C49.6522931,10.2437078 49.4186141,9.02939436 49.3132866,7.71356991 C48.9396119,2.94689906 50.7386488,0.685877116 49.8404536,0.154359875 C49.8224579,0.141062069 49.7839525,0.117363009 49.7102497,0.0906357367 C49.6124644,0.0553504702 49.5079308,0.0473191223 49.4814666,0.045739185 C49.4788202,0.0454758621 49.4765707,0.0448175549 49.4739243,0.0444225705 C49.4739243,0.0444225705 49.2461998,0.03889279 49.0474536,0.111701567 L49.0475859,0.111438245 C49.0475859,0.111438245 49.0457334,0.112228213 49.0449395,0.112359875 C49.0441456,0.112754859 49.0433516,0.113018182 49.0425577,0.113281505 C48.9912171,0.132240752 48.4238245,0.332629467 48.3429764,0.356065204 C46.6883017,0.836761129 42.2587226,1.78077367 37.7767443,2.30465455 C32.4520132,2.92714984 27.0046206,3.06302445 25.4835902,3.04209028 C25.4744601,3.04248527 25.4650653,3.04248527 25.4546119,3.04274859 C25.4441586,3.04248527 25.4346315,3.04248527 25.4255013,3.04209028 C23.9046033,3.06302445 18.4570783,2.92714984 13.1324796,2.30465455 C8.65036898,1.78077367 4.22065748,0.836761129 2.56611518,0.356065204 C2.48526703,0.332629467 1.91800672,0.132240752 1.86653384,0.113281505 C1.86573991,0.113018182 1.86494599,0.112754859 1.86415206,0.112359875 C1.86349046,0.112228213 1.86150564,0.111438245 1.86150564,0.111438245 L1.86163796,0.111701567 C1.66289176,0.03889279 1.43516725,0.0444225705 1.43516725,0.0444225705 C1.43252082,0.0448175549 1.43027137,0.0454758621 1.42775727,0.045739185 C1.40116074,0.0473191223 1.29662711,0.0553504702 1.19884187,0.0906357367 C1.12513905,0.117363009 1.08663362,0.141062069 1.06863796,0.154359875 C0.170575054,0.685877116 1.96947961,2.94689906 1.59580499,7.71356991 C1.49047744,9.02939436 1.2569308,10.2437078 1.00552082,11.2814633" id="Fill-35" fill="#1293CC" mask="url(#mask-4)"></path>
                </g>
            </g>
        </g>
    </g>
</svg>