<?xml version="1.0" encoding="UTF-8" standalone="no"?>
<svg width="219px" height="150px" viewBox="0 0 219 150" version="1.1" xmlns="http://www.w3.org/2000/svg" xmlns:xlink="http://www.w3.org/1999/xlink">
    <!-- Generator: Sketch 39.1 (31720) - http://www.bohemiancoding.com/sketch -->
    <title>owl</title>
    <desc>Created with Sketch.</desc>
    <defs></defs>
    <g id="Page-1" stroke="none" stroke-width="1" fill="none" fill-rule="evenodd">
        <g id="Full-Home-(New-Engage-Section)" transform="translate(-885.000000, -4005.000000)" fill="#FFFFFF">
            <g id="owl" transform="translate(885.000000, 4005.000000)">
                <path d="M158.196271,93.6879309 C170.719468,93.6879309 180.876858,83.5465469 180.876858,71.0456487 C180.876858,58.5424873 170.719468,48.4129857 158.196271,48.4129857 C145.684407,48.4129857 135.532684,58.5424873 135.532684,71.0456487 C135.532684,83.5465469 145.684407,93.6879309 158.196271,93.6879309" id="Fill-28"></path>
                <path d="M60.5248516,93.6879309 C73.0367158,93.6879309 83.1884389,83.5465469 83.1884389,71.0456487 C83.1884389,58.5424873 73.0367158,48.4129857 60.5248516,48.4129857 C48.0016543,48.4129857 37.8442646,58.5424873 37.8442646,71.0456487 C37.8442646,83.5465469 48.0016543,93.6879309 60.5248516,93.6879309" id="Fill-33"></path>
                <path d="M60.5945509,32.2124034 C72.6547866,32.2124034 83.4491027,37.6851182 90.6162249,46.2846135 C96.1513647,52.9976292 99.5178949,61.6904865 99.5178949,71.0459317 C99.5178949,81.7486197 95.1336425,91.5827577 88.0934523,98.5758596 C81.0770618,105.596687 71.2438019,109.993758 60.5248516,109.986402 C49.7945682,109.993758 39.9556417,105.596687 32.9500178,98.5758596 C28.5657654,94.2178313 25.2105685,88.7564332 23.3020559,82.6714897 C22.1800681,79.0382906 21.5782746,75.1804567 21.5782746,71.181731 C21.5782746,49.6518721 39.0472849,32.2124034 60.5945509,32.2124034 M109.236123,106.012007 C109.275222,106.067458 109.316022,106.120081 109.360788,106.174966 C109.405554,106.120081 109.445787,106.067458 109.484887,106.012007 C113.233346,111.223874 117.791563,115.811629 122.991807,119.581759 C122.638777,120.746805 121.522456,123.841333 118.705586,127.657861 C118.265291,128.207849 117.79723,128.769718 117.276469,129.347432 C113.401077,133.640389 110.914004,135.782059 109.484887,135.782059 C109.445787,135.782059 109.405554,135.774703 109.360788,135.772439 C109.316022,135.774703 109.275222,135.782059 109.236123,135.782059 C107.807005,135.782059 105.319932,133.640389 101.444541,129.347432 C100.92378,128.769718 100.455718,128.207849 100.015423,127.657861 C97.1985534,123.841333 96.0822322,120.746805 95.7292027,119.581759 C100.930013,115.811629 105.48823,111.223874 109.236123,106.012007 M128.105351,46.2846135 C135.271907,37.6851182 146.066223,32.2124034 158.126458,32.2124034 C179.673724,32.2124034 197.142735,49.6518721 197.142735,71.181731 C197.142735,75.1804567 196.540941,79.0382906 195.418953,82.6714897 C193.510441,88.7564332 190.155244,94.2178313 185.770425,98.5758596 C178.765368,105.596687 168.926441,109.993758 158.196158,109.986402 C147.477207,109.993758 137.643947,105.596687 130.627557,98.5758596 C123.587367,91.5827577 119.203114,81.7486197 119.203114,71.0459317 C119.203114,61.6904865 122.569645,52.9976292 128.105351,46.2846135 M4.65835833,48.8585774 C2.50674836,56.0282185 0.534769778,63.3263031 0.540436383,71.0459317 C0.534769778,83.3216292 4.34102844,95.0439442 10.8077582,104.554427 C16.6443615,113.174858 24.6263415,120.158907 34.0839054,124.804377 C34.3270028,124.927162 34.5701002,125.047118 34.8188641,125.167074 C35.044395,125.272319 35.2699259,125.379261 35.4960234,125.482242 C43.1312072,129.009631 51.6288482,130.980419 60.5945509,130.980419 C68.8485279,130.980419 76.7098092,129.306692 83.8712648,126.283458 L83.8417984,126.299302 C84.0735626,126.78535 84.3053267,127.259516 84.5421908,127.726892 C93.5481263,146.855932 105.985758,149.860493 109.236123,149.860493 C109.275222,149.860493 109.316022,149.858795 109.360788,149.858229 C109.405554,149.858795 109.445787,149.860493 109.484887,149.860493 C112.735818,149.860493 125.172883,146.855932 134.178818,127.726892 C134.415683,127.259516 134.648013,126.78535 134.879211,126.299302 L134.849744,126.283458 C142.0112,129.306692 149.872481,130.980419 158.126458,130.980419 C167.092161,130.980419 175.589802,129.009631 183.224986,125.482242 C183.451083,125.379261 183.676614,125.272319 183.902145,125.167074 C184.150909,125.047118 184.394006,124.927162 184.636537,124.804377 C194.094668,120.158907 202.077214,113.174858 207.913251,104.554427 C214.380547,95.0439442 218.186806,83.3216292 218.18114,71.0459317 C218.186806,63.3263031 216.214261,56.0282185 214.062651,48.8585774 C212.986563,44.3986997 211.98584,39.1800429 211.534778,33.5251307 C209.934529,13.0397953 217.638845,3.32278433 213.792354,1.03852571 C213.715288,0.981376803 213.55039,0.879527273 213.23476,0.764663636 C212.815998,0.613021003 212.368336,0.578505329 212.255004,0.571715361 C212.243671,0.570583699 212.234037,0.567754545 212.222704,0.566057053 C212.222704,0.566057053 211.247482,0.542292163 210.396357,0.855196552 L210.396924,0.85406489 C210.396924,0.85406489 210.388991,0.857459875 210.385591,0.858025705 C210.382191,0.859723197 210.378791,0.860854859 210.375391,0.86198652 C210.155527,0.943466144 207.725686,1.8046605 207.379457,1.90537837 C200.293367,3.97122633 181.32384,8.0282326 162.129915,10.279673 C139.326929,12.9549207 115.998649,13.538858 109.484887,13.4488909 C109.445787,13.4505884 109.405554,13.4505884 109.360788,13.4517201 C109.316022,13.4505884 109.275222,13.4505884 109.236123,13.4488909 C102.722927,13.538858 79.3940801,12.9549207 56.591661,10.279673 C37.3971695,8.0282326 18.4270755,3.97122633 11.3415524,1.90537837 C10.9953228,1.8046605 8.56604923,0.943466144 8.34561829,0.86198652 C8.34221833,0.860854859 8.33881836,0.859723197 8.3354184,0.858025705 C8.3325851,0.857459875 8.32408519,0.85406489 8.32408519,0.85406489 L8.32465185,0.855196552 C7.47352776,0.542292163 6.49830502,0.566057053 6.49830502,0.566057053 C6.48697181,0.567754545 6.47733858,0.570583699 6.46657203,0.571715361 C6.35267326,0.578505329 5.90501146,0.613021003 5.48624934,0.764663636 C5.17061943,0.879527273 5.00572123,0.981376803 4.9286554,1.03852571 C1.08273049,3.32278433 8.78648017,13.0397953 7.18623088,33.5251307 C6.73516911,39.1800429 5.73501331,44.3986997 4.65835833,48.8585774" id="Fill-35"></path>
            </g>
        </g>
    </g>
</svg>