<?xml version="1.0" encoding="UTF-8" standalone="no"?>
<svg width="181px" height="32px" viewBox="0 0 181 32" version="1.1" xmlns="http://www.w3.org/2000/svg" xmlns:xlink="http://www.w3.org/1999/xlink">
    <!-- Generator: Sketch 39.1 (31720) - http://www.bohemiancoding.com/sketch -->
    <title>wyzerr_text</title>
    <desc>Created with Sketch.</desc>
    <defs></defs>
    <g id="Page-1" stroke="none" stroke-width="1" fill="none" fill-rule="evenodd">
        <g id="Full-Home" transform="translate(-752.000000, -5018.000000)" fill="#1C5B7E">
            <g id="wyzerr_text" transform="translate(752.000000, 5018.000000)">
                <path d="M40.8486466,0.000292526083 C40.1785717,-0.00229025776 39.4972951,0.182120509 38.9412755,0.601564605 C38.3954395,1.02049214 38.0364708,1.62434701 37.8287272,2.28399 L31.5658697,21.91573 L25.2714433,2.36302319 C25.0479153,1.65895631 24.5957675,1.04425376 23.9923946,0.635657352 C23.3895309,0.216729812 22.672612,-0.00229025776 21.9444911,0.000292526083 C21.2168795,-0.00229025776 20.4943596,0.216729812 19.8970968,0.635657352 C19.2942331,1.04425376 18.8364844,1.65895631 18.6236491,2.36302319 L12.3134382,21.91573 L6.05567244,2.28399 C5.8474197,1.61401587 5.46299226,1.0018961 4.89628003,0.588134129 C4.3295678,0.174888714 3.63861677,0.000292526083 2.95224831,0.000292526083 C2.20376046,-0.0100386093 1.4450891,0.253405343 0.894161305,0.770478668 C0.384985895,1.21833339 -0.00504246986,1.90380422 4.92842427e-05,2.65281153 C4.92842427e-05,3.11409673 0.0519851761,3.55936866 0.176733152,3.98707767 L8.73749933,29.0865711 C9.02874766,29.8722539 9.48598718,30.5551419 10.1255115,31.0215927 C10.7645266,31.4911428 11.5547669,31.701898 12.3546814,31.6993152 C13.1607061,31.701898 13.9402537,31.4436196 14.5950533,30.9689039 C15.250362,30.5050359 15.743753,29.8304128 15.9830654,29.0576439 L21.9444911,11.0551239 L27.8957333,29.0576439 C28.1401375,29.8304128 28.6340377,30.5050359 29.2893464,30.9689039 C29.9390542,31.4436196 30.7236936,31.701898 31.5292091,31.6993152 C32.3296328,31.701898 33.1142721,31.4911428 33.7537964,31.0215927 C34.3984125,30.5551419 34.8505603,29.8722539 35.1418086,29.0917366 L43.7020656,4.0129055 C43.8217218,3.55936866 43.8843504,3.11409673 43.8843504,2.65281153 C43.8894421,1.90380422 43.494322,1.21833339 42.9902384,0.764796544 C42.4077417,0.232226515 41.6231024,-0.0048730416 40.8486466,0.000292526083 Z" id="Fill-1"></path>
                <path d="M69.6265188,7.5864738e-05 C69.1224352,7.5864738e-05 68.6076588,0.134897181 68.1712955,0.390592782 C67.7400239,0.643705598 67.3810553,1.00736156 67.0898069,1.42164009 L58.8778259,12.8060347 L50.6862119,1.42164009 L50.6811201,1.42164009 C50.3898718,1.00736156 50.0314123,0.643705598 49.5996316,0.390592782 C49.1632682,0.134897181 48.6540928,7.5864738e-05 48.1393165,7.5864738e-05 C47.3027413,-0.00508970295 46.4447807,0.253188681 45.841917,0.880805155 C45.3225581,1.40872617 44.9895574,2.1623825 45.0002501,2.92172095 C45.0002501,3.58084738 45.171333,4.23997382 45.5353934,4.78855711 L45.5562696,4.82523264 L55.7642183,18.4747287 L55.7642183,28.6937712 C55.748943,29.5083813 56.1124942,30.3307396 56.7209589,30.8633097 L56.7260506,30.8741574 C57.3080381,31.4093102 58.0931866,31.7099462 58.8778259,31.6990985 C59.667557,31.7099462 60.4684899,31.4093102 61.0448765,30.8550448 L61.0448765,30.8529785 C61.6273731,30.3126602 61.9807409,29.4975336 61.9598647,28.6937712 L61.9598647,18.4773115 L72.2151666,4.82523264 L72.2355336,4.78855711 C72.5894105,4.23997382 72.7660944,3.58084738 72.7610026,2.92172095 C72.7711862,2.1623825 72.4488781,1.40872617 71.9239183,0.880805155 C71.3261463,0.253188681 70.463094,-0.00508970295 69.6265188,7.5864738e-05" id="Fill-3"></path>
                <path d="M99.1203704,26.3125293 C98.5643508,25.7747937 97.7949868,25.4767405 97.0307145,25.4870716 L82.3837746,25.4870716 L98.7929706,6.11670932 L98.7929706,6.11360998 C99.4014352,5.45241732 99.7700782,4.56135689 99.7598947,3.65428321 C99.7700782,2.72086513 99.3958343,1.81895701 98.7675118,1.1391683 L98.7619109,1.13400273 C98.0704507,0.35606824 97.0363154,-0.00810428205 95.9863957,0.000160626248 L77.0715476,0.000160626248 C76.2970918,-0.00810428205 75.5175442,0.302862893 74.9666164,0.867459441 C74.4156886,1.40261225 74.0775962,2.18312953 74.0831971,2.96364681 C74.0725044,3.74416409 74.4156886,4.5350125 74.9824009,5.05725139 C75.5384204,5.599636 76.3128762,5.89562303 77.0715476,5.88477533 L91.4119639,5.88477533 L74.7950243,25.46331 L74.7899326,25.4741577 C74.2547892,26.1043569 74.0002015,26.9401458 74.0002015,27.783683 C73.9895088,28.7248494 74.404996,29.6376052 75.0913644,30.2724535 C75.7670402,30.9341627 76.6973037,31.2931697 77.6382598,31.2849048 L97.0307145,31.2849048 C97.789895,31.2931697 98.5490756,31.0183615 99.1101869,30.4940563 C99.6921744,29.9826651 100.035359,29.1861346 100.020083,28.4061339 C100.035359,27.6256166 99.6921744,26.8347682 99.1203704,26.3125293" id="Fill-7"></path>
                <path d="M121.546753,5.80574894 C122.305424,5.81143106 123.069697,5.53197385 123.625716,5.01490052 C124.213305,4.50350932 124.550888,3.70181322 124.540704,2.92129594 C124.550888,2.14594423 124.213305,1.35509582 123.641501,0.830274141 L123.641501,0.827691357 C123.085481,0.289955761 122.316117,-0.00809749492 121.546753,0.000167413382 L104.077454,0.000167413382 C103.282122,-0.00809749492 102.471515,0.30596902 101.910403,0.888645055 C101.332998,1.43981113 100.989814,2.24615624 101.000507,3.04785235 L101.000507,28.2821671 C100.984722,29.0859294 101.338599,29.8984732 101.920587,30.4387916 C102.491882,30.9951232 103.287723,31.2931765 104.077454,31.2849115 L121.546753,31.2849115 C122.300333,31.2931765 123.069697,31.0219842 123.631317,30.4940631 C124.213305,29.9826719 124.550888,29.186658 124.540704,28.4061407 C124.550888,27.6282062 124.213305,26.834775 123.641501,26.3125361 C123.085481,25.7722177 122.316117,25.4767472 121.546753,25.4875949 L107.201245,25.4875949 L107.201245,18.5244097 L119.982566,18.5244097 C120.741238,18.5326746 121.499909,18.2532174 122.056438,17.7335613 C122.637916,17.2221701 122.986701,16.4261561 122.970917,15.6425395 C122.9811,14.8620222 122.643517,14.0763394 122.082406,13.5515177 L122.076805,13.5515177 C121.515693,13.0137821 120.75193,12.713146 119.982566,12.7245103 L107.201245,12.7245103 L107.201245,5.80574894 L121.546753,5.80574894 Z" id="Fill-17"></path>
                <g id="Group-23" transform="translate(126.000000, 0.000000)">
                    <path d="M19.4563431,7.07708601 C19.8977921,7.38856974 20.2002471,7.7439608 20.4126423,8.18458372 C20.6198318,8.62727287 20.7473731,9.18360451 20.7473731,9.8850886 C20.7473731,10.6098177 20.593803,11.1769971 20.3225826,11.6646267 C20.0461564,12.1496735 19.6317774,12.5660182 19.0102089,12.9456875 C17.7186583,13.7210392 15.9169426,14.1533972 13.5576894,14.1533972 L6.63870545,14.1533972 L6.63870545,5.86162793 L13.334362,5.86162793 C16.2995664,5.85387958 18.3563647,6.33892639 19.4563431,7.07708601 M25.434645,14.7257421 C26.5138004,13.1724559 27.0874758,11.4244278 27.0817495,9.59220092 C27.1030931,6.80795993 25.9396044,4.37704378 23.7604706,2.6765389 L23.7500591,2.67395611 L23.7500591,2.66879055 C21.3746679,0.841729254 18.0372512,0.0219536627 13.8283892,0.0162715382 L3.44496787,0.0162715382 C2.63234776,0.00800662991 1.80306919,0.322073145 1.22418799,0.905265737 C0.633854097,1.45591525 0.293396985,2.26277693 0.304329094,3.06395647 L0.304329094,28.5038608 C0.288711796,29.3081397 0.64426563,30.1227497 1.23980529,30.6630681 C1.82441284,31.2193997 2.63703295,31.5200357 3.44496787,31.5097046 C4.25290279,31.5200357 5.0655229,31.2193997 5.66106255,30.6790813 L5.68761196,30.6527369 L5.66106255,30.6739158 C6.28263104,30.1408292 6.64911698,29.3189874 6.63870545,28.5038608 L6.63870545,19.9904887 L14.7211781,19.9904887 C16.2787434,19.9904887 17.3521724,20.2911247 17.9945639,20.7317476 L17.9945639,20.7291648 C18.7499206,21.2503706 19.3449397,21.9229275 19.8014854,22.8222529 C20.2002471,23.5841741 20.4870848,25.1054338 20.481879,27.2568927 L20.481879,28.5038608 C20.4714675,29.3055569 20.790581,30.1310146 21.4012173,30.6842469 C21.9910307,31.2457441 22.8145829,31.5200357 23.6282441,31.5097046 C24.44607,31.5200357 25.2753486,31.2302474 25.8755734,30.6656508 L25.8755734,30.6630681 C26.4815246,30.1227497 26.8323933,29.3081397 26.8162554,28.5038608 L26.8162554,26.5926007 C26.8162554,24.6121221 26.4867304,22.7483853 25.8016515,21.0267015 L25.8016515,21.021536 C25.2753486,19.7192964 24.5631998,18.6247126 23.6490672,17.7651621 C23.3939847,17.522897 23.1071469,17.3069763 22.8145829,17.1034529 C23.8671888,16.4686046 24.7651835,15.6932529 25.434645,14.7257421" id="Fill-21"></path>
                </g>
                <path d="M172.739,7.06097352 C173.159578,7.3719407 173.455919,7.72784831 173.669263,8.16847124 C173.871915,8.61116039 173.991571,9.16749203 173.991571,9.86897612 C173.991571,10.5937053 173.845947,11.160368 173.576084,11.6485142 C173.305203,12.133561 172.904991,12.5499057 172.297035,12.929575 C171.029189,13.7049267 169.271515,14.1372847 166.963932,14.1372847 L160.196482,14.1372847 L160.196482,5.846032 L166.745496,5.846032 C169.646268,5.8377671 171.657511,6.3228139 172.739,7.06097352 L172.739,7.06097352 Z M178.939738,21.0054235 L178.929045,21.0054235 C178.424961,19.7031839 177.723318,18.6086001 176.834807,17.7490496 C176.574618,17.5067845 176.299154,17.2908638 176.013507,17.0873404 C177.04255,16.4524921 177.920878,15.6771404 178.581278,14.7096296 C179.63629,13.1563434 180.197401,11.4083153 180.192309,9.57608843 C180.213185,6.79184745 179.069577,4.36093129 176.94377,2.66094297 L176.933077,2.65784363 L176.933077,2.65267806 C174.610219,0.825616769 171.345896,0.00584117729 167.224121,0.00015905284 L157.078291,0.00015905284 C156.277868,-0.00810585546 155.472352,0.30596066 154.900548,0.889153252 C154.333836,1.43980277 153.98556,2.24666444 154.000835,3.04836054 L154.000835,28.4877483 C153.980468,29.2920272 154.333836,30.1066372 154.921424,30.6469556 C155.492719,31.2032872 156.282959,31.5039233 157.078291,31.4935921 C157.868023,31.5039233 158.663355,31.2032872 159.245342,30.6629688 L159.245342,30.6578033 C159.843623,30.1247167 160.217358,29.3028749 160.196482,28.4877483 L160.196482,19.9743762 L168.092265,19.9743762 C169.625392,19.9743762 170.675312,20.2750122 171.299052,20.7156351 L171.299052,20.7130524 C172.047539,21.2347747 172.619343,21.9068151 173.071491,22.8066569 C173.461519,23.5680616 173.742075,25.0893213 173.731382,27.2407802 L173.731382,28.4877483 C173.721199,29.2894444 174.033323,30.1149021 174.631095,30.6681344 C175.212574,31.2296316 176.013507,31.5039233 176.803238,31.4935921 C177.614354,31.5039233 178.424961,31.2141349 179.01255,30.6495384 L179.01255,30.6469556 C179.600138,30.1066372 179.947905,29.2920272 179.93263,28.4877483 L179.93263,26.5764882 C179.93263,24.5960096 179.604721,22.7322728 178.939738,21.0105891 L178.939738,21.0054235 Z" id="Fill-24"></path>
            </g>
        </g>
    </g>
</svg>