<?xml version="1.0" encoding="UTF-8" standalone="no"?>
<svg width="69px" height="68px" viewBox="0 0 69 68" version="1.1" xmlns="http://www.w3.org/2000/svg" xmlns:xlink="http://www.w3.org/1999/xlink">
    <!-- Generator: Sketch 39.1 (31720) - http://www.bohemiancoding.com/sketch -->
    <title>building</title>
    <desc>Created with Sketch.</desc>
    <defs>
        <polygon id="path-1" points="0 67.0309068 68.2698289 67.0309068 68.2698289 0 0 0"></polygon>
    </defs>
    <g id="Page-1" stroke="none" stroke-width="1" fill="none" fill-rule="evenodd">
        <g id="Full-Home-(New-Engage-Section)" transform="translate(-202.000000, -4793.000000)">
            <g id="Hand-Icons" transform="translate(132.000000, 4664.000000)">
                <g id="building" transform="translate(70.000000, 129.000000)">
                    <mask id="mask-2" fill="white">
                        <use xlink:href="#path-1"></use>
                    </mask>
                    <g id="Clip-2"></g>
                    <path d="M31.2290851,63.7270805 L37.0193623,63.7270805 L37.0193623,50.0881106 L31.2290851,50.0881106 L31.2290851,63.7270805 Z M64.9260526,63.7683121 C64.9260526,62.9266572 64.9256775,62.3013738 64.9256775,61.6760905 C64.9260526,44.0947714 64.927178,26.5134523 64.9253024,8.93251149 C64.9249273,5.19707696 62.995335,3.25313792 59.2565625,3.2520031 C42.5095474,3.24557248 25.7621571,3.24557248 9.015142,3.25162483 C5.28274642,3.25313792 3.35840579,5.19972486 3.35765556,8.94348137 C3.35577998,26.5248005 3.35690533,44.1061195 3.35690533,61.6874386 L3.35690533,63.6987101 L27.9528295,63.6987101 C27.9528295,58.6945517 27.9907161,53.8496459 27.9314479,49.0062531 C27.9115668,47.4008674 28.5638921,46.6481064 30.1157434,46.6443237 C32.8030682,46.6371365 35.4900179,46.6371365 38.1769676,46.6443237 C39.7370714,46.6484847 40.384145,47.4216723 40.3526354,49.0176013 C40.2851146,52.4190217 40.3308787,55.8227119 40.3301285,59.2256454 L40.3301285,63.7683121 L64.9260526,63.7683121 Z M34.0480753,67.0305285 C23.6078709,67.0301503 13.1676665,67.0320416 2.72783725,67.0290154 C0.394246005,67.0282589 0.0318847863,66.6662527 0.0311345561,64.2797356 C0.0270082896,45.8715143 0.0753981418,27.4632929 1.13343394e-12,9.05544984 C-0.0221317929,3.61363099 3.95708954,-0.0673323895 9.01064062,0.000756543702 C25.8244262,0.227341382 42.6442137,0.209940877 59.4587496,0.00491753406 C63.9923911,-0.0503101562 68.3047146,3.29172165 68.2698289,8.86480083 C68.2116861,18.1317046 68.253699,27.3989867 68.253699,36.6662688 C68.253699,45.8703795 68.257075,55.0741119 68.2510732,64.2782225 C68.2495727,66.6662527 67.8890871,67.0282589 65.5558709,67.0290154 C55.0533974,67.0320416 44.5505488,67.0305285 34.0480753,67.0305285 L34.0480753,67.0305285 Z" id="Fill-1" fill="#FFFFFF" mask="url(#mask-2)"></path>
                    <path d="M31.2665966,40.3426929 L37.0189872,40.3426929 L37.0189872,37.647506 L31.2665966,37.647506 L31.2665966,40.3426929 Z M34.1366025,43.7316304 C32.7655567,43.7312521 31.3941357,43.728226 30.0230899,43.7320087 C28.6719252,43.7357914 27.9179438,43.1596834 27.9438267,41.699554 C27.9760866,39.8774185 27.9895908,38.0530134 27.9389503,36.2316344 C27.9006885,34.8577511 28.6242856,34.220363 29.8460356,34.1961536 C32.7119152,34.1397911 35.5800455,34.1397911 38.4459251,34.1972884 C39.6718014,34.2218761 40.3845201,34.8717471 40.3436326,36.2410912 C40.2918667,37.9996771 40.2866151,39.7620456 40.3436326,41.5202532 C40.3923976,43.0310709 39.7351958,43.7448699 38.2504902,43.7339 C36.8794443,43.724065 35.5080234,43.7320087 34.1366025,43.7316304 L34.1366025,43.7316304 Z" id="Fill-3" fill="#FFFFFF" mask="url(#mask-2)"></path>
                    <path d="M31.2065782,27.9433199 L37.0700028,27.9433199 L37.0700028,25.1391907 L31.2065782,25.1391907 L31.2065782,27.9433199 Z M34.2570144,21.8410384 C35.6265598,21.8402819 36.9968554,21.8660043 38.3656505,21.8327164 C39.6612982,21.8013199 40.3605128,22.3123651 40.338381,23.7017576 C40.3083718,25.5844166 40.3263773,27.4682105 40.3346298,29.351626 C40.3398814,30.5950056 39.6939332,31.2278544 38.5066938,31.2388243 C35.5811709,31.2656816 32.6548977,31.269086 29.7297499,31.2346633 C28.5282561,31.2206672 27.9351991,30.5359952 27.9457023,29.3058551 C27.9618323,27.4224396 27.9648332,25.539024 27.9472028,23.6559867 C27.9351991,22.3918022 28.537634,21.82099 29.7751388,21.8372557 C31.2688473,21.8565475 32.7629309,21.8417949 34.2570144,21.8410384 L34.2570144,21.8410384 Z" id="Fill-4" fill="#FFFFFF" mask="url(#mask-2)"></path>
                    <path d="M12.6308768,40.25796 L18.5051798,40.25796 L18.5051798,37.6410753 L12.6308768,37.6410753 L12.6308768,40.25796 Z M15.5417702,43.7286042 C14.169599,43.7293608 12.7970528,43.7361697 11.4245065,43.7274694 C10.0763427,43.7187692 9.33699079,43.1290434 9.3771281,41.6636182 C9.42476773,39.903141 9.43864699,38.1388811 9.37337695,36.379917 C9.31485899,34.8119802 10.142363,34.1935057 11.5265378,34.1753486 C14.2708801,34.1390345 17.0163478,34.1443304 19.7610652,34.173079 C21.0991009,34.1866968 21.8549579,34.9114657 21.8770897,36.2819446 C21.9067238,38.1055932 21.9318565,39.9315114 21.8755892,41.7536469 C21.8369524,43.0083746 21.1377378,43.7187692 19.8462164,43.7255781 C18.411401,43.7335218 16.9765856,43.7274694 15.5417702,43.7286042 L15.5417702,43.7286042 Z" id="Fill-5" fill="#FFFFFF" mask="url(#mask-2)"></path>
                    <path d="M49.8231671,40.3181052 L55.6273236,40.3181052 L55.6273236,37.6497756 L49.8231671,37.6497756 L49.8231671,40.3181052 Z M52.61815,43.7289825 C51.2456037,43.7289825 49.8730574,43.7327652 48.5005112,43.7278477 C47.1309658,43.7229302 46.4133706,43.0163183 46.3957402,41.6428133 C46.3736084,39.8815795 46.3923641,38.1199675 46.3893632,36.3583555 C46.3871125,34.9663151 47.141469,34.2173368 48.4502457,34.1889664 C51.2564821,34.1284429 54.0653442,34.1329822 56.8715805,34.1848054 C58.1664779,34.2082583 58.9538446,34.8377027 58.9084557,36.3084236 C58.8518133,38.1313157 58.867193,39.9576122 58.9035792,41.7812607 C58.9294621,43.0549021 58.2752613,43.6578674 57.1090284,43.7009904 C55.6141946,43.7562181 54.1152345,43.7146082 52.61815,43.7146082 L52.61815,43.7289825 L52.61815,43.7289825 Z" id="Fill-6" fill="#FFFFFF" mask="url(#mask-2)"></path>
                    <path d="M49.8137893,52.7375266 L55.6258231,52.7375266 L55.6258231,50.1210202 L49.8137893,50.1210202 L49.8137893,52.7375266 Z M52.735561,46.6439454 C54.1084824,46.6443237 55.4825291,46.615575 56.8547003,46.6522674 C58.1814825,46.6882032 58.9377146,47.3115952 58.9043294,48.7630243 C58.8641921,50.524258 58.8413101,52.2896528 58.9103312,54.0493734 C58.9722252,55.6275236 58.1728549,56.2062795 56.7567953,56.2089274 C54.0105774,56.2146015 51.2643595,56.2104405 48.5177665,56.2093057 C47.1508469,56.2089274 46.4171217,55.5193378 46.3972406,54.1401587 C46.3717328,52.3781684 46.3803604,50.6154216 46.391989,48.853053 C46.4013669,47.3796841 47.1913594,46.66702 48.6160466,46.6477281 C49.988968,46.6291928 51.3622645,46.6435671 52.735561,46.6439454 L52.735561,46.6439454 Z" id="Fill-7" fill="#FFFFFF" mask="url(#mask-2)"></path>
                    <path d="M12.6548841,52.7757321 L18.5306876,52.7757321 L18.5306876,50.1531734 L12.6548841,50.1531734 L12.6548841,52.7757321 Z M15.6674338,56.1953096 C14.1707244,56.1953096 12.6725146,56.236163 11.1773056,56.1820701 C10.0110727,56.1400819 9.35499631,55.539008 9.3793788,54.2657449 C9.4142645,52.4424746 9.4315198,50.6165564 9.37412718,48.7940426 C9.32798802,47.3259695 10.1056017,46.689338 11.4038752,46.6651286 C14.2097364,46.6125488 17.0178483,46.6170881 19.8240846,46.6598328 C21.1632456,46.6802595 21.8800906,47.4534472 21.8898436,48.8208999 C21.9018473,50.5821336 21.9108501,52.3437456 21.8853422,54.1046011 C21.865086,55.4697842 21.1508668,56.1915269 19.7839473,56.2024968 C18.4117761,56.2138449 17.0396049,56.2051447 15.6674338,56.2051447 L15.6674338,56.1953096 L15.6674338,56.1953096 Z" id="Fill-8" fill="#FFFFFF" mask="url(#mask-2)"></path>
                    <path d="M49.7661496,27.971312 L55.6306996,27.971312 L55.6306996,25.1739917 L49.7661496,25.1739917 L49.7661496,27.971312 Z M52.7108034,21.8414167 C54.1441184,21.8410384 55.5781835,21.8550345 57.0114984,21.8368774 C58.2216199,21.8217465 58.899828,22.3388442 58.8968271,23.6177813 C58.8927008,25.5662596 59.0401211,27.5317601 58.8143018,29.4533811 C58.7377783,30.1066566 57.7576024,31.12156 57.1401629,31.160522 C54.2217672,31.3436056 51.2861162,31.2558465 48.3568421,31.2441201 C47.0506912,31.2392025 46.4208729,30.4826588 46.3991162,29.2245267 C46.3679816,27.4027694 46.3732333,25.5791208 46.4043678,23.7569853 C46.4264996,22.4648087 47.0885778,21.8088853 48.4101084,21.8349861 C49.8430482,21.8629782 51.2771134,21.8414167 52.7108034,21.8414167 L52.7108034,21.8414167 Z" id="Fill-9" fill="#FFFFFF" mask="url(#mask-2)"></path>
                    <path d="M12.6845182,28.001952 L18.5074305,28.001952 L18.5074305,25.1475126 L12.6845182,25.1475126 L12.6845182,28.001952 Z M15.4828771,31.2460114 C14.0503124,31.2460114 12.6162473,31.2838386 11.185183,31.234285 C10.0144487,31.1934316 9.36287373,30.5866836 9.38087926,29.3240122 C9.40788755,27.4398401 9.39625898,25.5545332 9.38388018,23.6699828 C9.37562764,22.4141203 9.98368928,21.8346078 11.2174429,21.8395253 C14.1455917,21.8508735 17.0737404,21.8523866 20.001514,21.8399036 C21.2596502,21.8346078 21.832451,22.5302497 21.86171,23.7032707 C21.9070989,25.5235149 21.9063487,27.3460286 21.884592,29.1670293 C21.8680869,30.532969 21.1534926,31.2482811 19.7816966,31.2516855 C18.3487567,31.2554682 16.9158169,31.2524421 15.4828771,31.2524421 L15.4828771,31.2460114 Z" id="Fill-10" fill="#FFFFFF" mask="url(#mask-2)"></path>
                    <path d="M31.2182067,15.4728318 L37.0099844,15.4728318 L37.0099844,12.6505455 L31.2182067,12.6505455 L31.2182067,15.4728318 Z M34.19362,9.36979375 C35.5680418,9.36979375 36.9432139,9.38492462 38.3176358,9.36525449 C39.6980595,9.34558435 40.4014003,9.91034422 40.3455082,11.398844 C40.2791128,13.1608342 40.3031202,14.9277421 40.3395063,16.6912454 C40.3665146,18.0049836 39.7997157,18.7479095 38.4860625,18.7592576 C35.5496612,18.7846018 32.6125097,18.7815757 29.6757333,18.7550966 C28.5492626,18.7448833 27.9592065,18.1018212 27.9532046,16.9643577 C27.9423263,15.0109619 27.9644581,13.0571878 27.947953,11.1041702 C27.9374498,9.89596989 28.5856487,9.39362487 29.6944891,9.3811419 C31.1941994,9.36411967 32.6939097,9.37698091 34.19362,9.37698091 L34.19362,9.36979375 Z" id="Fill-11" fill="#FFFFFF" mask="url(#mask-2)"></path>
                    <path d="M49.7736519,15.4887192 L55.638577,15.4887192 L55.638577,12.702747 L49.7736519,12.702747 L49.7736519,15.4887192 Z M52.7400624,9.36865893 C54.1118585,9.36828066 55.4836545,9.38643771 56.8550754,9.36298485 C58.2276217,9.33991027 58.9493432,9.89483508 58.9069552,11.3750128 C58.8548142,13.1971483 58.8743202,15.0219317 58.9017036,16.8452021 C58.9208345,18.1105214 58.2647581,18.7358048 57.0943989,18.7520705 C54.1643746,18.7933021 51.2336,18.769471 48.3032006,18.76531 C47.0938294,18.7634186 46.4336268,18.137757 46.414871,16.9219913 C46.3859872,15.0366843 46.3754839,13.1502426 46.4133706,11.2656923 C46.4388784,9.97805488 47.1148359,9.32818384 48.4378669,9.36109349 C49.8711819,9.39665105 51.3059973,9.3690372 52.7400624,9.36865893 L52.7400624,9.36865893 Z" id="Fill-12" fill="#FFFFFF" mask="url(#mask-2)"></path>
                    <path d="M12.6503828,15.4599705 L18.5160581,15.4599705 L18.5160581,12.6626502 L12.6503828,12.6626502 L12.6503828,15.4599705 Z M15.4483665,18.7740102 C14.1392147,18.7755233 12.8300629,18.7732537 11.5212862,18.7762799 C10.0879713,18.779306 9.31936037,18.1763407 9.3745023,16.6159693 C9.4363963,14.85814 9.41951611,13.0957715 9.37750322,11.3364291 C9.34524332,9.9818376 9.96530863,9.36601103 11.2785867,9.36865893 C14.1459668,9.37395474 17.0133469,9.3811419 19.880727,9.36525449 C21.1985064,9.35806732 21.8542077,10.0276085 21.8774648,11.3099501 C21.9100998,13.1324638 21.9044731,14.9557342 21.8875929,16.7782479 C21.874839,18.1839061 21.1201074,18.8035154 19.7494367,18.7785495 C18.3161217,18.7524487 16.8820566,18.7724971 15.4483665,18.7740102 L15.4483665,18.7740102 Z" id="Fill-13" fill="#FFFFFF" mask="url(#mask-2)"></path>
                </g>
            </g>
        </g>
    </g>
</svg>