<?xml version="1.0" encoding="UTF-8" standalone="no"?>
<svg width="74px" height="64px" viewBox="0 0 74 64" version="1.1" xmlns="http://www.w3.org/2000/svg" xmlns:xlink="http://www.w3.org/1999/xlink">
    <!-- Generator: Sketch 39.1 (31720) - http://www.bohemiancoding.com/sketch -->
    <title>db</title>
    <desc>Created with Sketch.</desc>
    <defs></defs>
    <g id="Page-1" stroke="none" stroke-width="1" fill="none" fill-rule="evenodd">
        <g id="Full-Home-(New-Engage-Section)" transform="translate(-562.000000, -2700.000000)" fill="#FFFFFF">
            <g id="db" transform="translate(562.000000, 2700.000000)">
                <path d="M44,23 L44,57 C44,60.8659932 34.1502645,64 22,64 C9.8497355,64 0,60.8659932 0,57 L0,23 C0,19.1340068 9.8497355,16 22,16 C34.1502645,16 44,19.1340068 44,23 Z M22,31 C32.4934102,31 41,28.0898509 41,24.5 C41,20.9101491 32.4934102,18 22,18 C11.5065898,18 3,20.9101491 3,24.5 C3,28.0898509 11.5065898,31 22,31 Z M3,29.1374996 L3,35.5328856 C3,35.5328856 3.51459246,37.0384118 6.56066895,38.4076414 C9.54516151,39.7491887 14.9862387,40.9550047 22.2185059,40.9550047 C29.5321096,40.9550047 34.4446577,39.7644166 37.3519287,38.4076414 C40.253858,37.0533592 41.1572266,35.5328853 41.1572266,35.5328853 L41.1572266,29 C41.1572266,29 36.0197754,33.5021236 22.2185059,33.5021238 C8.41723633,33.5021241 3,29.1374996 3,29.1374996 Z M3,39.1374996 L3,45.5328856 C3,45.5328856 3.51459246,47.0384118 6.56066895,48.4076414 C9.54516151,49.7491887 14.9862387,50.9550047 22.2185059,50.9550047 C29.5321096,50.9550047 34.4446577,49.7644166 37.3519287,48.4076414 C40.253858,47.0533592 41.1572266,45.5328853 41.1572266,45.5328853 L41.1572266,39 C41.1572266,39 36.0197754,43.5021236 22.2185059,43.5021238 C8.41723633,43.5021241 3,39.1374996 3,39.1374996 Z M3,49.1374996 L3,55.5328856 C3,55.5328856 3.51459246,57.0384118 6.56066895,58.4076414 C9.54516151,59.7491887 14.9862387,60.9550047 22.2185059,60.9550047 C29.5321096,60.9550047 34.4446577,59.7644166 37.3519287,58.4076414 C40.253858,57.0533592 41.1572266,55.5328853 41.1572266,55.5328853 L41.1572266,49 C41.1572266,49 36.0197754,53.5021236 22.2185059,53.5021238 C8.41723633,53.5021241 3,49.1374996 3,49.1374996 Z" id="Combined-Shape-Copy"></path>
                <path d="M42.7960801,47.3598304 C45.5962329,47.7707719 48.7139836,48 52,48 C64.1502645,48 74,44.8659932 74,41 L74,7 C74,3.13400675 64.1502645,0 52,0 C39.8497355,0 30,3.13400675 30,7 L30,17.3462843 C30.8060837,17.4548086 31.8550926,17.6174567 33,17.8497343 L33,13.1374996 C33,13.1374996 38.4172363,17.5021241 52.2185059,17.5021238 C66.0197754,17.5021236 71.1572266,13 71.1572266,13 L71.1572266,19.5328853 C71.1572266,19.5328853 70.253858,21.0533592 67.3519287,22.4076414 C64.4446577,23.7644166 59.5321096,24.9550047 52.2185059,24.9550047 C48.4193799,24.9550047 45.1145193,24.6222689 42.400375,24.1119095 C42.5011672,24.8220219 42.5838952,25.6934055 42.6511083,26.689409 C45.2441161,27.1701945 48.4125083,27.5021239 52.2185059,27.5021238 C66.0197754,27.5021236 71.1572266,23 71.1572266,23 L71.1572266,29.5328853 C71.1572266,29.5328853 70.253858,31.0533592 67.3519287,32.4076414 C64.4446577,33.7644166 59.5321096,34.9550047 52.2185059,34.9550047 C48.6459185,34.9550047 45.5104087,34.6607673 42.8921819,34.2012788 C42.9005355,35.0308781 42.9050694,35.878555 42.9063671,36.7359177 C45.4512323,37.1914693 48.5364999,37.5021239 52.2185059,37.5021238 C66.0197754,37.5021236 71.1572266,33 71.1572266,33 L71.1572266,39.5328853 C71.1572266,39.5328853 70.253858,41.0533592 67.3519287,42.4076414 C64.4446577,43.7644166 59.5321096,44.9550047 52.2185059,44.9550047 C48.6271002,44.9550047 45.4773888,44.6576594 42.8508511,44.1940041 C42.8347504,45.2792705 42.8160789,46.340505 42.7960801,47.3598304 Z M52,15 C62.4934102,15 71,12.0898509 71,8.5 C71,4.91014913 62.4934102,2 52,2 C41.5065898,2 33,4.91014913 33,8.5 C33,12.0898509 41.5065898,15 52,15 Z" id="Combined-Shape"></path>
            </g>
        </g>
    </g>
</svg>