<?xml version="1.0" encoding="UTF-8" standalone="no"?>
<svg width="66px" height="81px" viewBox="0 0 66 81" version="1.1" xmlns="http://www.w3.org/2000/svg" xmlns:xlink="http://www.w3.org/1999/xlink">
    <!-- Generator: Sketch 39.1 (31720) - http://www.bohemiancoding.com/sketch -->
    <title>gov_building</title>
    <desc>Created with Sketch.</desc>
    <defs></defs>
    <g id="Page-1" stroke="none" stroke-width="1" fill="none" fill-rule="evenodd">
        <g id="Full-Home-(New-Engage-Section)" transform="translate(-168.000000, -4960.000000)" fill="#FFFFFF">
            <g id="Hand-Icons" transform="translate(132.000000, 4664.000000)">
                <g id="gov_building" transform="translate(36.000000, 296.000000)">
                    <path d="M58.0078405,41.9979502 L7.06801782,41.9979502 C7.38901007,39.2615424 7.37431833,36.4955857 8.07506979,33.9270694 C10.7787951,24.0178884 17.2605234,17.8108272 27.1489546,15.3323007 C28.7089502,14.9414493 29.2089145,14.4382225 29.1421339,12.8640716 C29.0197028,9.96066773 29.083367,7.0483096 29.1158669,4.14042858 C29.1452503,1.55131759 30.5654518,-0.0273103529 32.7589731,0.000447710703 C34.9355765,0.0277580636 36.2938947,1.60951998 36.3201617,4.22997073 C36.3491,7.13829945 36.3931752,10.0488667 36.3005727,12.9545092 C36.2551619,14.3876312 36.6438252,14.9633871 38.1561839,15.297827 C50.5675874,18.0427413 59.1965358,29.6035271 58.0078405,41.9979502 L58.0078405,41.9979502 Z" id="Fill-1"></path>
                    <polygon id="Fill-3" points="0 51.1155787 65.391152 51.1155787 65.391152 44.1026383 0 44.1026383"></polygon>
                    <polygon id="Fill-5" points="0.0458560356 80.3963064 65.4156382 80.3963064 65.4156382 73.4415684 0.0458560356 73.4415684"></polygon>
                    <polygon id="Fill-6" points="36.4907194 71.2742008 43.5267271 71.2742008 43.5267271 53.2587698 36.4907194 53.2587698"></polygon>
                    <polygon id="Fill-7" points="21.9659315 71.269276 28.9725556 71.269276 28.9725556 53.2502633 21.9659315 53.2502633"></polygon>
                    <polygon id="Fill-8" points="51.0288635 71.232116 58.001207 71.232116 58.001207 53.2332503 51.0288635 53.2332503"></polygon>
                    <polygon id="Fill-9" points="7.45939686 71.3041975 14.3030763 71.3041975 14.3030763 53.2516065 7.45939686 53.2516065"></polygon>
                </g>
            </g>
        </g>
    </g>
</svg>