<?xml version="1.0" encoding="UTF-8" standalone="no"?>
<svg width="83px" height="70px" viewBox="0 0 83 70" version="1.1" xmlns="http://www.w3.org/2000/svg" xmlns:xlink="http://www.w3.org/1999/xlink">
    <!-- Generator: Sketch 39.1 (31720) - http://www.bohemiancoding.com/sketch -->
    <title>heart</title>
    <desc>Created with Sketch.</desc>
    <defs></defs>
    <g id="Page-1" stroke="none" stroke-width="1" fill="none" fill-rule="evenodd">
        <g id="Full-Home-(New-Engage-Section)" transform="translate(-546.000000, -4797.000000)" fill="#FFFFFF">
            <g id="Hand-Icons" transform="translate(132.000000, 4664.000000)">
                <path d="M468.607502,134.406118 C483.000449,129.51224 495.182952,137.791885 496.470626,153.046069 C497.290446,162.75491 493.461382,170.154506 486.281349,176.047624 C483.227907,178.554431 479.752428,180.528963 476.579868,182.89753 C472.540593,185.913209 468.397292,188.84344 464.701361,192.254787 C461.168748,195.515921 458.151959,199.346883 454.985327,202.842588 C449.316114,193.107623 439.552108,186.98701 430.266197,180.269901 C426.289986,177.39355 422.730423,173.919614 419.063598,170.624737 C418.231381,169.87694 417.739812,168.743816 416.762603,167.303735 C418.049198,167.217744 418.866863,167.117602 419.685606,167.11597 C425.523527,167.101819 431.362526,167.159509 437.19883,167.06862 C438.513992,167.047939 439.821609,166.530359 441.504371,166.16027 C441.6181,166.626691 441.711347,167.682532 442.135541,168.578364 C442.628727,169.618966 443.411356,170.519697 444.06786,171.480839 C444.755625,170.560515 445.744692,169.73598 446.068632,168.699731 C446.735915,166.564646 447.047997,164.315813 448.025206,162.102901 C448.325969,164.920473 448.643979,167.736957 448.923182,170.556706 C449.226639,173.624088 449.381333,176.712151 449.842179,179.753409 C449.989326,180.725436 450.907245,181.577729 451.472657,182.48499 C452.195996,181.617459 453.312807,180.854967 453.572605,179.863347 C454.577842,176.030208 455.310345,172.123596 456.859434,167.910028 C457.469583,168.839059 457.99996,169.837754 458.715754,170.674263 C459.25206,171.300693 460.227113,172.265645 460.652385,172.107813 C461.391355,171.832423 462.104993,170.893051 462.383117,170.077223 C462.894629,168.578908 463.082202,166.96739 463.380808,165.520234 C464.634525,165.846783 465.613351,166.309394 466.598106,166.323544 C471.716461,166.398106 476.839666,166.447089 481.953709,166.277828 C482.898039,166.246261 483.80895,165.170827 484.735493,164.577597 C483.785773,164.005592 482.854919,162.981861 481.882561,162.93941 C477.66865,162.756543 473.43803,162.734229 469.22412,162.914919 C467.223347,163.00091 466.420775,162.191069 465.703364,160.463626 C465.102378,159.015926 463.957001,156.749677 462.989494,156.717022 C460.756412,156.640828 461.274931,159.190085 460.82217,160.727586 C460.443252,162.013644 460.209326,163.343242 459.936052,164.544942 C457.227572,165.108783 453.768802,162.771782 452.130777,167.122501 C452.01597,166.213606 451.880142,165.306345 451.790129,164.395274 C451.292631,159.343019 450.884068,154.279879 450.244273,149.246674 C450.128927,148.339956 449.076797,147.554606 448.457485,146.713199 C447.837634,147.492562 446.875517,148.184846 446.65776,149.065439 C445.771642,152.642237 445.113522,156.276726 444.290467,160.285112 C442.21693,157.683607 440.820378,158.708426 439.872814,160.749356 C438.75277,163.163096 437.01503,163.710065 434.490349,163.621353 C428.748909,163.419437 422.994533,163.488556 417.248243,163.599039 C415.543921,163.631694 414.802256,162.980229 414.534372,161.406263 C413.355577,154.479619 414.008846,147.804416 417.684834,141.72952 C422.435589,133.87983 432.226544,131.030692 442.001869,134.408295 C447.319653,136.245676 451.6004,139.571576 455.293097,143.966379 C458.994956,139.562868 463.270313,136.220641 468.607502,134.406118 Z" id="heart"></path>
            </g>
        </g>
    </g>
</svg>