<?xml version="1.0" encoding="UTF-8" standalone="no"?>
<svg width="182px" height="167px" viewBox="0 0 182 167" version="1.1" xmlns="http://www.w3.org/2000/svg" xmlns:xlink="http://www.w3.org/1999/xlink">
    <!-- Generator: Sketch 39.1 (31720) - http://www.bohemiancoding.com/sketch -->
    <title>market3</title>
    <desc>Created with Sketch.</desc>
    <defs>
        <polygon id="path-1" points="176.987623 0.388112224 0.137158253 0.388112224 0.137158253 28.5581007 176.987623 28.5581007"></polygon>
    </defs>
    <g id="Page-1" stroke="none" stroke-width="1" fill="none" fill-rule="evenodd">
        <g id="Full-Home" transform="translate(-947.000000, -1288.000000)">
            <g id="market3" transform="translate(947.000000, 1288.000000)">
                <path d="M59.8889758,71.0002264 C59.8889758,75.4185323 54.3170799,79.0004528 47.4441357,79.0004528 C40.5711915,79.0004528 35,75.4185323 35,71.0002264 C35,66.5819206 40.5711915,63 47.4441357,63 C54.3170799,63 59.8889758,66.5819206 59.8889758,71.0002264" id="Fill-1-Copy-7" fill="#FFFFFF"></path>
                <path d="M55.9073969,71.4190455 C55.7374969,70.6030964 55.5667801,69.7871473 55.39688,68.9711982 C55.2825243,68.7965851 54.4158708,67.5261523 52.7421923,67.3393 C51.0693306,67.1524476 49.9461935,68.2001263 49.7811945,68.3592363 C49.6006757,68.5338495 48.7356559,69.4036512 48.6580573,70.8070836 C48.6466218,71.010255 48.5829093,72.6666316 49.8832978,73.7648991 C51.0791326,74.7750441 52.8132563,74.7913631 54.0695362,74.07088 C55.5349238,73.2304525 55.860021,71.6679099 55.9073969,71.4190455 M37.2608703,71.683413 C37.7869069,73.4793169 39.5643224,74.6298052 41.4087178,74.3768609 C43.2751674,74.1206529 44.6858277,72.4985461 44.6760257,70.6030964 C44.6531546,70.4758083 44.2096175,68.2319483 42.1234414,67.4412936 C41.8881952,67.3523552 40.0691215,66.697148 38.5498233,67.8492682 C37.4201515,68.7051988 36.9120852,70.2147046 37.2608703,71.683413 M57.3964725,60.8492408 L57.3964725,33.7515713 C52.3836053,33.7515713 47.6607116,33.7417799 42.9386347,33.7540191 C37.0435943,33.7678903 34.5212325,31.3951103 34.3978917,25.5251725 C34.3153921,21.5849543 34.3366296,17.6414723 34.3946244,13.7012541 C34.481208,7.8802732 36.8009967,5.59724763 42.5751467,5.59235193 C55.6337599,5.5801127 68.6931899,5.56868941 81.751803,5.59561573 C88.239043,5.60948686 90.3137836,7.75624894 90.2541552,14.1443144 C90.2182148,18.0845326 90.3064321,22.0271987 90.236185,25.9666009 C90.1463341,30.9634732 87.507166,33.6193875 82.4681603,33.7311725 C78.2525162,33.8241907 74.0311543,33.8290864 69.816327,33.7197493 C67.7064629,33.6642647 66.8683984,34.4949009 66.8773835,36.5535405 C66.9133238,44.4135781 66.8920863,52.2736158 66.8920863,60.5881371 L103.377298,60.5881371 C103.377298,58.3377495 103.57742,56.1844598 103.337273,54.0809431 C102.784281,49.2374692 103.964596,45.121822 108.103459,42.3035338 C110.818592,40.4545931 110.450203,38.8488053 108.809197,36.3438416 C101.703619,25.4925345 101.48716,14.0374251 106.456735,2.29265378 C106.607848,1.93445212 106.914159,1.62847121 107.19433,1.34288903 C107.560269,0.96836839 107.972766,0.638724954 108.691574,0.000652759279 C115.464704,6.91582137 122.199442,13.7926404 130.080189,21.8387144 C131.44184,19.8992034 132.373022,18.0274162 133.798385,16.6753885 C135.721196,14.8492945 138.062222,13.446678 140.556812,15.9671447 C142.983605,18.4190718 142.338312,20.835097 140.278274,23.1450489 C139.735901,23.753747 139.191894,24.3844756 138.551502,24.8781248 C136.230079,26.6675012 136.537206,28.242283 138.531081,30.1891375 C144.742234,36.2532712 150.822694,42.4504046 157.722431,49.3655732 C153.101641,50.7706376 149.158817,52.2368981 145.091836,53.1507611 C136.239881,55.140045 128.25213,52.3739776 120.602545,48.1628643 C116.730785,46.0316052 113.480631,47.6235219 112.848407,51.9864017 C112.654002,53.3253742 112.669522,54.6978006 112.636032,56.0555399 C112.603359,57.4034878 112.62868,58.7522517 112.62868,60.7888606 C118.361172,60.7888606 123.873121,60.8084434 129.384252,60.7839649 C135.502287,60.7562226 141.621954,60.5962966 147.738355,60.6648363 C154.055695,60.7358239 157.236419,63.5524802 157.291147,69.8173374 C157.428374,85.5757623 157.354859,101.338267 157.134316,117.096692 C157.061618,122.318766 153.501886,125.576035 148.186793,125.607041 C133.501877,125.6919 118.816145,125.615201 104.130412,125.580115 C84.1467398,125.53279 64.1630674,125.465066 44.1793949,125.408765 C42.8177443,125.404686 41.4552769,125.465066 40.0960768,125.418557 C32.6482482,125.166429 29.8465317,122.428919 29.5696273,115.029077 C29.462623,112.179783 29.5418552,109.323145 29.5394047,106.469771 C29.5369542,103.784482 29.5385879,101.098378 29.5385879,97.7497229 C21.577792,97.7497229 14.1422159,97.6926064 6.70663972,97.7693057 C1.5287734,97.8215264 0.0494997159,96.5763881 0.035613657,91.4709946 C-0.00277721178,77.7483626 0.0527670239,64.0257307 0.000490096197,50.3030987 C-0.0125791357,47.0980507 0.628630055,44.3768604 4.44974674,44.3907316 C8.1401711,44.4037868 9.22573417,47.1984124 9.25268946,50.2680129 C9.34172361,60.4608491 9.26657552,70.6553171 9.25513995,80.8489692 C9.25268946,83.1360745 9.25513995,85.4231798 9.25513995,88.1321309 L29.4552715,88.1321309 C29.4552715,83.2756018 29.537771,78.4052016 29.4373013,73.5388812 C29.2388124,63.9800375 32.2635227,60.8476089 41.8734923,60.8484249 C46.8879932,60.8492408 51.9024942,60.8492408 57.3964725,60.8492408" id="Fill-1" fill="#1293CC"></path>
                <path d="M176.500651,151.00034 C176.500651,157.627798 171.12777,163.000679 164.500311,163.000679 C157.872853,163.000679 152.500651,157.627798 152.500651,151.00034 C152.500651,144.372881 157.872853,139 164.500311,139 C171.12777,139 176.500651,144.372881 176.500651,151.00034" id="Fill-1-Copy-6" fill="#29A95C"></path>
                <path d="M148,151.00034 C148,157.627798 142.627119,163.000679 135.99966,163.000679 C129.372202,163.000679 124,157.627798 124,151.00034 C124,144.372881 129.372202,139 135.99966,139 C142.627119,139 148,144.372881 148,151.00034" id="Fill-1-Copy-5" fill="#F0BA1A"></path>
                <path d="M119,151.00034 C119,157.627798 113.627119,163.000679 106.99966,163.000679 C100.372202,163.000679 95,157.627798 95,151.00034 C95,144.372881 100.372202,139 106.99966,139 C113.627119,139 119,144.372881 119,151.00034" id="Fill-1-Copy-4" fill="#02BDD4"></path>
                <path d="M88.9999717,152.000297 C88.9999717,158.07546 84.0748372,163.000594 77.9996745,163.000594 C71.9245118,163.000594 67,158.07546 67,152.000297 C67,145.925134 71.9245118,141 77.9996745,141 C84.0748372,141 88.9999717,145.925134 88.9999717,152.000297" id="Fill-1-Copy-3" fill="#CE58A2"></path>
                <path d="M60,151.500325 C60,157.85164 54.8509892,163.000651 48.4996745,163.000651 C42.1483599,163.000651 37,157.85164 37,151.500325 C37,145.149011 42.1483599,140 48.4996745,140 C54.8509892,140 60,145.149011 60,151.500325" id="Fill-1-Copy-2" fill="#6C57A6"></path>
                <path d="M32.4993491,150.5 C32.4993491,156.851135 27.350484,162 20.9993491,162 C14.6482142,162 9.5,156.851135 9.5,150.5 C9.5,144.148865 14.6482142,139 20.9993491,139 C27.350484,139 32.4993491,144.148865 32.4993491,150.5" id="Fill-1-Copy" fill="#F36235"></path>
                <g id="Group-5" transform="translate(4.900962, 138.297661)">
                    <mask id="mask-2" fill="white">
                        <use xlink:href="#path-1"></use>
                    </mask>
                    <g id="Clip-4"></g>
                    <path d="M14.0771147,5.52903428 C9.35667154,5.42377685 6.12857126,8.38893587 5.97827509,12.9672263 C5.775702,19.142329 8.83145178,22.4371315 14.8138927,22.4942479 C19.3521835,22.5374932 22.9012968,19.1659916 22.9633756,14.7549707 C23.0442415,8.96417999 19.859433,5.65795424 14.0771147,5.52903428 M102.401435,22.3612482 C107.653632,22.4273401 111.046731,18.9440534 111.04183,13.4910656 C111.037746,8.96907568 107.480465,5.58207097 102.650567,5.50210796 C97.6278975,5.41888115 93.5829703,9.0857564 93.59849,13.708924 C93.6148265,18.6878454 97.2872807,22.2967883 102.401435,22.3612482 M43.5588515,5.58615072 C38.2944015,5.63347577 34.7657089,9.2668971 34.9249901,14.4759161 C35.0654844,19.0599182 38.8620962,22.5203583 43.7410039,22.5113829 C48.9017168,22.5015915 52.4034542,19.1700713 52.290732,14.3755544 C52.1543219,8.54723 49.1622846,5.53556187 43.5588515,5.58615072 M160.888698,5.61797273 C155.438828,5.65632234 152.386346,8.9078795 152.414118,14.6415538 C152.437806,19.4262793 155.968132,22.5472846 161.284042,22.4844566 C166.207058,22.4265242 169.846839,18.8902008 169.769241,14.2401069 C169.676123,8.62637706 166.53624,5.57880718 160.888698,5.61797273 M131.308942,5.52250669 C126.497014,5.44254368 123.184781,8.60597833 122.983024,13.4722988 C122.764115,18.7718882 126.416148,22.3514568 132.155991,22.4632419 C136.623218,22.5505484 140.275252,19.2280037 140.438617,14.9279519 C140.65916,9.11349867 137.269328,5.62123653 131.308942,5.52250669 M72.375691,22.4909841 C78.6137988,22.4575302 81.6989543,19.4621811 81.7291769,13.4094707 C81.7528649,8.67207021 78.3867209,5.43438419 73.4857589,5.48742088 C67.3317843,5.5543287 64.8853875,7.90670996 64.3103413,14.4057445 C63.8970268,19.0705255 67.710792,22.5154626 72.375691,22.4909841 M96.799635,0.488100751 C104.684466,0.488100751 111.085939,0.475045565 115.382449,0.462806329 C130.625258,0.420376976 135.882356,0.351837251 143.971394,0.411401536 C144.630573,0.41629723 149.927696,0.46199038 154.181731,0.462806329 L158.265866,0.462806329 C162.031439,0.462806329 162.014285,0.46199038 162.043691,0.462806329 C163.517247,0.489732649 168.697564,0.574591355 172.481923,4.02279225 C174.659584,6.00718045 175.553193,8.30326122 175.982844,9.56471852 C178.204613,16.0841518 176.845413,21.5575384 170.876858,25.6209649 C168.160909,27.4699055 164.342242,28.5249277 161.020207,28.5347191 C129.064301,28.6318171 97.1083956,28.4000875 65.1524899,28.3217564 C49.9153991,28.2850387 34.6783084,28.4196703 19.4420344,28.3862164 C14.3123609,28.3747931 9.2676374,28.3201245 5.06342886,24.3105506 C0.676251069,20.1263637 -1.04398658,15.4460796 0.980927538,9.74341138 C3.07037099,3.85878648 8.38873155,0.435064059 14.854734,0.435880008 C37.300323,0.439959754 59.7450952,0.456278736 82.1906842,0.467702023 C84.3650776,0.468517972 86.5386543,0.467702023 88.7130477,0.467702023 C91.4085768,0.474229616 94.1041059,0.481573158 96.799635,0.488100751" id="Fill-3" fill="#1293CC" mask="url(#mask-2)"></path>
                </g>
            </g>
        </g>
    </g>
</svg>