<?xml version="1.0" encoding="UTF-8" standalone="no"?>
<svg width="116px" height="166px" viewBox="0 0 116 166" version="1.1" xmlns="http://www.w3.org/2000/svg" xmlns:xlink="http://www.w3.org/1999/xlink">
    <!-- Generator: Sketch 39.1 (31720) - http://www.bohemiancoding.com/sketch -->
    <title>market2</title>
    <desc>Created with Sketch.</desc>
    <defs></defs>
    <g id="Page-1" stroke="none" stroke-width="1" fill="none" fill-rule="evenodd">
        <g id="Full-Home" transform="translate(-625.000000, -1286.000000)">
            <g id="market2" transform="translate(625.000000, 1286.000000)">
                <path d="M57.9996604,76.0006793 C51.3722016,76.0006793 46,70.6277984 46,64.0003396 C46,57.3728809 51.3722016,52 57.9996604,52 C64.6271191,52 70,57.3728809 70,64.0003396 C70,70.6277984 64.6271191,76.0006793 57.9996604,76.0006793 Z" id="Fill-1" fill="#CE58A2"></path>
                <path d="M70,88.0003396 C70,94.6277984 64.6271191,100.000679 57.9996604,100.000679 C51.3722016,100.000679 46,94.6277984 46,88.0003396 C46,81.3728809 51.3722016,76 57.9996604,76 C64.6271191,76 70,81.3728809 70,88.0003396" id="Fill-1" fill="#F0BA1A"></path>
                <path d="M32.6823763,102.139572 C34.4155161,101.040857 36.2415806,101.752631 38.0183763,101.819709 C38.6451505,101.842689 39.2469785,102.34267 39.8756237,102.583655 C40.1188495,102.676819 40.4125914,102.710358 40.6714086,102.678061 C41.4715591,102.578065 42.2623548,102.380557 43.0643763,102.31969 C43.8614086,102.259444 44.5686344,102.096717 45.3145269,101.732756 C46.9166989,100.95204 48.4527634,100.062012 50.3773656,99.9539417 C51.7674946,99.8763049 53.1220753,100.003008 54.4922473,100.010461 C54.6724839,100.011703 54.9013656,100.061391 55.0254731,99.9731956 C56.0713441,99.2340934 57.3361183,99.2291247 58.5054731,98.9092612 C58.8540968,98.8142337 59.2276667,98.6564758 59.5656882,98.7030579 C61.1235806,98.9160932 62.6852151,99.139066 64.2225269,99.4651405 C65.0956452,99.6502266 65.9338387,100.018536 66.7707849,100.347094 C67.251,100.535907 67.7068925,100.793661 68.1546774,101.052036 C68.9242688,101.495498 69.7287849,101.350162 70.5357957,101.239607 C72.2664409,101.002349 73.9964624,100.8949 75.7246129,101.261345 C75.856828,101.289294 75.9915376,101.335876 76.1243763,101.33215 C77.4802043,101.298611 78.6663978,101.71847 79.7359677,102.750729 C79.9480108,102.428381 80.1556882,102.175596 80.2947634,101.88865 C80.7207204,101.00856 81.3393871,100.319145 82.1775806,99.8048791 C82.5006344,99.6061289 82.7794086,99.3303631 83.0594301,99.0701246 C84.2637097,97.9521549 85.6700538,97.5900569 87.2722258,97.9167525 C87.7817527,98.0204753 88.2943978,98.1161238 88.8095376,98.1856863 C90.0674516,98.354624 91.0366129,98.9769604 91.8473656,99.9377932 C93.1688925,101.503572 94.5546559,103.015936 95.8743118,104.583578 C96.6707204,105.530747 97.4203548,106.52015 98.1406774,107.526323 C98.8472796,108.512621 99.5133441,109.529973 100.155086,110.559747 C100.750054,111.515611 101.298871,112.499425 101.850183,113.481375 C102.466978,114.578848 103.122441,115.659552 103.651925,116.798018 C104.284312,118.157593 104.912957,119.537044 105.340161,120.968666 C105.91143,122.882257 106.326785,124.845536 106.736527,126.802604 C107.151258,128.782653 107.471194,130.781334 107.847882,132.769457 C107.927086,133.188696 108.039968,133.607313 108.191516,134.006056 C108.671108,135.26874 109.04343,136.59664 109.708871,137.756844 C110.363086,138.898415 110.693624,140.118244 111.086527,141.332484 C111.244935,141.821906 111.396484,142.337414 111.408957,142.844227 C111.451366,144.488264 111.485043,146.137269 111.402097,147.777579 C111.366548,148.473204 111.158247,149.225349 110.810871,149.82719 C109.831108,151.52464 108.752806,153.166193 107.681989,154.808987 C107.440011,155.180401 107.125065,155.563616 106.749624,155.779136 C105.635151,156.417621 104.503839,157.044926 103.323258,157.544286 C102.059108,158.079048 100.739452,158.490834 99.4260323,158.900135 C98.8510215,159.07901 98.2354731,159.164721 97.6317742,159.211924 C96.3732366,159.310057 95.1103333,159.36844 93.8486774,159.416885 C92.7416882,159.45912 91.6322043,159.431791 90.527086,159.49887 C89.6084409,159.555389 88.6810645,159.63551 87.783,159.824944 C85.3819247,160.332378 82.988957,160.65721 80.5267634,160.266542 C78.6564194,159.969659 76.7661183,159.801343 74.885172,159.572159 C73.2025484,159.367198 71.524914,159.111928 69.8373011,158.962865 C68.7153441,158.86349 67.5796667,158.930568 66.4514731,158.887713 C65.5945699,158.854795 64.7414086,158.734924 63.8845054,158.706974 C62.0104194,158.644865 60.135086,158.602631 58.2597527,158.579029 C57.1533871,158.565365 56.0463978,158.629338 54.9400323,158.610084 C54.083129,158.594556 53.2287204,158.483381 52.3718172,158.452326 C50.5432581,158.385869 48.7146989,158.331212 46.8848925,158.294568 C45.1692151,158.260408 43.4504194,158.200783 41.7366129,158.25606 C40.6339892,158.291462 39.5376022,158.513814 38.4387204,158.651076 C37.3841183,158.783369 36.3257742,158.892061 35.2755376,159.049818 C34.114914,159.223104 32.9642688,159.460983 31.8036452,159.633647 C30.7764839,159.786436 29.7437097,159.908792 28.7096882,160.007546 C26.4601613,160.221202 24.2118817,160.47523 21.9567419,160.586406 C20.6102688,160.652863 19.2519462,160.483304 17.8992366,160.41312 C17.2893011,160.380823 16.6799892,160.339831 16.0713011,160.290144 C14.7909355,160.186421 13.5018387,160.139218 12.2351935,159.9473 C11.010957,159.762214 9.74306452,159.58396 8.61424731,159.115654 C7.08566667,158.482138 5.83710753,157.352989 4.78375269,156.077261 C4.42764516,155.645601 4.20624731,155.036307 4.10646237,154.475459 C3.92560215,153.458728 3.84390323,152.419637 3.78902151,151.386136 C3.683,149.370064 3.99170968,147.397469 4.49998925,145.449717 C4.56734409,145.190721 4.53865591,144.905639 4.61224731,144.649748 C4.85360215,143.814997 5.10555914,142.98211 5.38370968,142.15916 C5.63504301,141.418816 5.93751613,140.695241 6.19758065,139.957381 C6.67467742,138.604638 7.10188172,137.23264 7.61702151,135.894803 C8.00431183,134.888631 8.48203226,133.914755 8.94852688,132.940879 C9.23041935,132.352082 9.65325806,131.819183 9.86343011,131.21051 C10.3031075,129.936646 10.5912366,128.609368 11.0415161,127.339851 C11.4618602,126.156045 12.0006989,125.012611 12.5083548,123.861102 C13.3222258,122.012725 14.1392151,120.165591 14.9817742,118.330258 C15.8717312,116.393065 16.7791505,114.463946 17.7059032,112.543522 C18.3326774,111.244814 19.0841828,110.000141 19.633,108.671 C20.0676882,107.618866 20.2803548,106.47481 20.5903118,105.371747 C20.6021613,105.32827 20.5940538,105.278583 20.6108925,105.238212 C21.5981398,102.860042 22.4787419,100.393055 25.3693871,99.6061289 C25.5845484,99.547125 25.7853656,99.429117 25.9849355,99.3241521 C28.5338172,97.9819674 31.3683333,98.9974565 32.4578602,101.64456 C32.5164839,101.78617 32.5844624,101.924053 32.6823763,102.139572" id="Fill-1" fill="#02BDD4"></path>
                <g id="Group-5" transform="translate(0.000000, 0.450914)" fill="#1293CC">
                    <path d="M64.8164344,61.0941234 C64.8713161,57.4601008 62.3529935,54.4664265 59.1679828,54.3782311 C54.8111226,54.2583599 51.2381978,57.5793509 51.2438108,61.743788 C51.2494237,65.5678653 54.2685419,68.1957152 58.6964989,68.2298753 C62.5531871,68.260309 64.7472086,65.7020217 64.8164344,61.0941234 M67.1501548,85.6111982 C66.9393591,79.9020998 63.5404344,76.101624 58.7601118,76.2314327 C53.1097892,76.3842219 48.8988645,80.338108 49.0978108,85.3031355 C49.3179613,90.7892611 53.5644344,94.5394283 59.4635957,94.4574438 C63.1893161,94.405893 67.3004559,89.6743969 67.1501548,85.6111982 M39.0295097,157.122128 C45.3664774,157.145109 51.7034452,157.168089 58.0404129,157.191691 C70.290886,157.191691 82.5432301,157.335164 94.7893376,157.121507 C99.7723484,157.034554 104.584477,155.552623 106.913209,150.595049 C108.822219,146.530608 108.122477,142.084194 106.450456,138.143351 C101.638327,126.799685 96.4314237,115.623094 91.5114022,104.323526 C90.4299828,101.83977 88.578972,101.775797 86.7323269,102.495025 C84.9611441,103.184439 83.2068,104.318557 81.8865204,105.681238 C76.8791871,110.848742 72.3134022,111.190965 66.9181548,106.44829 C63.8803269,103.777584 60.898628,100.836082 56.3696387,102.642845 C54.1400688,103.532873 51.7651871,104.599292 50.090671,106.232149 C45.0771011,111.120161 40.2643484,111.423255 35.088628,106.83461 C33.478972,105.407336 31.7520688,104.019811 29.8611441,103.022955 C27.8417462,101.958399 26.0156817,102.121126 24.9211656,104.765745 C22.8712086,109.720835 20.528757,114.555433 18.3628,119.46332 C15.2364129,126.547521 11.9079613,133.557191 9.13393978,140.777412 C7.76813333,144.331934 7.93652043,147.715035 9.34473548,150.447228 C11.2026065,154.05268 15.1497247,155.573119 16.1076602,155.948881 C18.7407355,156.980519 20.9815312,156.978655 22.4895312,156.979898 C27.3740043,156.984866 32.6370366,157.039523 39.0295097,157.122128 M36.2193161,12.1773604 L28.1978538,12.1773604 L28.1978538,0.170366156 L87.8206065,0.170366156 L87.8206065,11.9692938 L79.3158108,11.9692938 L79.3158108,32.6846507 C79.3158108,40.0284693 79.1218538,47.379741 79.4062409,54.7123798 C79.5297247,57.9103942 80.1022409,61.302811 81.3807355,64.2107744 C88.4872946,80.3753736 95.8900903,96.4101642 103.155058,112.505201 C106.809682,120.601786 110.611488,128.643093 113.931832,136.875076 C116.678413,143.685996 116.500047,150.486357 111.946735,156.737671 C108.647596,161.267932 103.917789,163.406981 98.6447785,164.215646 C94.4781333,164.854131 90.2035957,164.970275 85.9745849,165.000709 C65.9358968,165.145424 45.8959613,165.26219 25.8572731,165.188279 C21.8540258,165.173373 17.6318753,164.937357 13.8936817,163.677778 C1.48978925,159.499677 -2.95687742,148.572766 1.96688602,136.481303 C7.56669247,122.730276 13.992843,109.312776 20.0834667,95.7611207 C25.4119828,83.9056734 30.9974452,72.1564333 35.9617462,60.1519234 C37.1809935,57.2017256 36.5473591,53.4397577 36.5486065,50.0510674 C36.552972,38.0614638 36.4656602,26.0712391 36.4039183,14.0816354 C36.4008,13.5742014 36.3084989,13.0673885 36.2193161,12.1773604" id="Fill-3"></path>
                </g>
            </g>
        </g>
    </g>
</svg>