<?xml version="1.0" encoding="UTF-8" standalone="no"?>
<svg width="155px" height="165px" viewBox="0 0 155 165" version="1.1" xmlns="http://www.w3.org/2000/svg" xmlns:xlink="http://www.w3.org/1999/xlink">
    <!-- Generator: Sketch 39.1 (31720) - http://www.bohemiancoding.com/sketch -->
    <title>market1</title>
    <desc>Created with Sketch.</desc>
    <defs></defs>
    <g id="Page-1" stroke="none" stroke-width="1" fill="none" fill-rule="evenodd">
        <g id="Full-Home" transform="translate(-254.000000, -1288.000000)">
            <g id="market1" transform="translate(254.000000, 1288.000000)">
                <path d="M17.5374568,108.429497 C17.5286791,115.309628 21.2879343,119.147883 27.9789458,119.092025 C33.3165935,119.048136 37.8698327,114.889894 37.9679835,109.968789 C38.1100229,102.855649 34.2286777,98.841042 27.1793759,98.809921 C21.4914176,98.7843859 17.5446385,102.722387 17.5374568,108.429497 M105.317782,30.5839472 C105.269904,36.7267506 109.72978,41.4076657 115.625211,41.4028778 C121.271675,41.398888 125.53525,37.0930206 125.536846,31.3914968 C125.538442,24.9039687 121.43925,20.6220405 115.029923,20.6763027 C109.082623,20.7257771 104.762392,26.2796757 105.317782,30.5839472 M47.3768943,70.5528659 C47.0656844,63.8283395 42.2922043,59.1027378 36.2196226,59.5073106 C31.1101955,59.8472475 27.0157912,64.9056043 27.2256584,70.4395536 C27.4945756,77.5319459 32.3366815,80.2219161 37.6057034,80.3743291 C43.5545991,80.5458935 47.6354378,76.1251179 47.3768943,70.5528659 M57.2087312,138.191531 C57.1863879,131.687245 53.6258282,128.026939 47.3058746,128.012575 C40.4600562,127.995818 36.727932,131.727942 36.7973558,138.5187 C36.8603957,144.643948 41.0880616,148.609081 47.4854187,148.541253 C53.7279688,148.475819 57.2310744,144.746887 57.2087312,138.191531 M85.9517525,127.93996 C79.1011462,127.99901 75.7927462,131.35848 75.7895544,138.259359 C75.7863625,145.314246 79.1953071,148.668131 86.3068509,148.605889 C93.3250317,148.544445 96.5767755,145.115551 96.4562814,137.90426 C96.3437671,131.142229 92.9052974,127.88091 85.9517525,127.93996 M71.1533258,50.277944 C76.3617017,50.4431246 81.0194756,46.0335206 81.1200203,40.8419022 C81.2548779,33.9370337 77.1445141,29.4939148 70.441533,29.2976132 C65.4789331,29.1531799 60.0543062,33.8604282 60.1085685,38.734453 C60.18278,45.4326462 63.0076078,50.0433397 71.1533258,50.277944 M71.1684873,85.8149154 C71.0352256,87.4435802 70.9027619,89.073043 70.7695003,90.7025058 C70.8891964,92.166788 71.2347191,94.1529451 72.2042574,96.2978991 C73.104372,98.2880461 74.4050696,101.176712 77.4724814,102.506934 C80.3531673,103.756561 83.8482932,103.440564 86.5534248,100.598979 C91.0364424,95.8901344 92.8215101,85.6640983 90.038975,79.5308706 C88.6465105,76.4610649 86.7433426,74.0870924 83.1285207,73.8700435 C80.2342692,73.6952872 78.0741537,74.8754907 77.3376238,75.3183662 C76.9913031,75.5266374 75.8031199,76.2687532 74.6596233,77.6356825 C73.6948728,78.7879569 73.2352398,79.8197372 72.6646884,81.1268185 C72.1731365,82.2527598 71.5874236,83.8327482 71.1684873,85.8149154 M104.914007,0 C117.695954,0.557783784 129.892985,2.37636639 140.881885,9.29879032 C148.441092,14.0610988 152.468466,21.0521485 154.073192,29.6870245 C155.792826,38.9387343 151.30901,44.9434882 144.254122,50.0832384 C136.212939,55.941963 128.28028,61.9977872 120.746608,68.4853154 C115.565363,72.9475856 111.566716,78.5461708 109.254985,85.1932937 C104.935552,97.6089702 112.115722,107.995399 125.21606,108.640162 C129.051921,108.828484 133.114406,109.640023 136.56325,111.255921 C142.04932,113.826993 143.698733,120.000119 141.789181,126.490839 C140.024861,132.488411 136.002274,136.877268 131.405944,140.570291 C119.670939,149.999151 106.518733,156.955888 92.0171524,161.103757 C74.2973431,166.172487 56.6206244,166.893856 39.1960654,159.665808 C16.9158351,150.424471 4.16341355,133.504232 0.741701296,109.977566 C-1.57481705,94.0476126 1.70246192,78.600433 8.23786848,63.8865916 C15.6462585,47.2081383 26.4173108,33.0137778 40.7441349,21.8078298 C52.7648143,12.4061008 66.5777432,6.31596373 81.5716735,3.33952094 C89.2697281,1.81140084 97.1281755,1.08684051 104.914007,0" id="Fill-1" fill="#1293CC"></path>
                <path d="M98,138.00034 C98,144.627798 92.6271191,150.000679 85.9996604,150.000679 C79.3722016,150.000679 74,144.627798 74,138.00034 C74,131.372881 79.3722016,126 85.9996604,126 C92.6271191,126 98,131.372881 98,138.00034" id="Fill-1" fill="#29A95C"></path>
                <path d="M59,138.00034 C59,144.627798 53.6271191,150.000679 46.9996604,150.000679 C40.3722016,150.000679 35,144.627798 35,138.00034 C35,131.372881 40.3722016,126 46.9996604,126 C53.6271191,126 59,131.372881 59,138.00034" id="Fill-1" fill="#F0BA1A"></path>
                <path d="M39,108.00034 C39,114.627798 33.6271191,120.000679 26.9996604,120.000679 C20.3722016,120.000679 15,114.627798 15,108.00034 C15,101.372881 20.3722016,96 26.9996604,96 C33.6271191,96 39,101.372881 39,108.00034" id="Fill-1" fill="#02BDD4"></path>
                <path d="M48,70.0002972 C48,76.0754599 43.0748655,81.0005943 36.9997028,81.0005943 C30.9245401,81.0005943 26.0000283,76.0754599 26.0000283,70.0002972 C26.0000283,63.9251345 30.9245401,59 36.9997028,59 C43.0748655,59 48,63.9251345 48,70.0002972 L34,70" id="Fill-1" fill="#CE58A2"></path>
                <path d="M82,40.5003255 C82,46.8516401 76.8509892,52.0006509 70.4996745,52.0006509 C64.1483599,52.0006509 59,46.8516401 59,40.5003255 C59,34.1490108 64.1483599,29 70.4996745,29 C76.8509892,29 82,34.1490108 82,40.5003255" id="Fill-1" fill="#6C57A6"></path>
                <path d="M126.999377,30.5 C126.999377,36.8511349 121.850512,42 115.499377,42 C109.148242,42 104.000028,36.8511349 104.000028,30.5 C104.000028,24.1488651 109.148242,19 115.499377,19 C121.850512,19 126.999377,24.1488651 126.999377,30.5" id="Fill-1" fill="#F36235"></path>
            </g>
        </g>
    </g>
</svg>