<?xml version="1.0" encoding="UTF-8" standalone="no"?>
<svg width="44px" height="85px" viewBox="0 0 44 85" version="1.1" xmlns="http://www.w3.org/2000/svg" xmlns:xlink="http://www.w3.org/1999/xlink">
    <!-- Generator: Sketch 39.1 (31720) - http://www.bohemiancoding.com/sketch -->
    <title>money</title>
    <desc>Created with Sketch.</desc>
    <defs></defs>
    <g id="Page-1" stroke="none" stroke-width="1" fill="none" fill-rule="evenodd">
        <g id="Full-Home-(New-Engage-Section)" transform="translate(-388.000000, -4700.000000)" fill="#FFFFFF">
            <g id="Hand-Icons" transform="translate(132.000000, 4664.000000)">
                <g id="money" transform="translate(256.723375, 36.453220)">
                    <path d="M26.6054461,9.67723873 C31.4186483,10.4661617 35.8125032,11.8406771 39.6076369,14.750339 C42.0699894,16.6384677 42.1164488,16.7584328 40.6038897,19.4993302 C39.7878188,20.9775442 38.9895238,22.4659247 38.1544651,23.9331589 C37.089129,25.8046144 36.5675708,25.9436926 34.849378,24.6753158 C31.4158203,22.1410023 27.6958299,20.3598256 23.3738862,20.1463284 C20.6291408,20.0109102 18.0051901,20.4757241 15.6789841,22.0637367 C12.0672644,24.5285111 11.6531691,29.170957 15.0863227,31.8410954 C17.2307308,33.5088136 19.7730744,34.7133445 22.2519907,35.8759893 C25.6613086,37.4749817 29.2560605,38.6799193 32.6362907,40.3329977 C40.672973,44.2633796 43.895241,49.7618476 43.0815941,57.7124836 C42.3172346,65.1812259 36.7445208,71.4877301 29.0855744,73.5438098 C28.312327,73.7516138 27.5297877,73.9240382 26.6062541,74.1477019 C26.6062541,76.5880767 26.5387868,78.9524057 26.6276658,81.3106349 C26.698365,83.1772105 25.9178457,83.8953744 24.10431,83.7770359 C22.6967897,83.6847238 21.2739176,83.6879771 19.8655893,83.775816 C17.9942822,83.8929344 17.3264777,83.034879 17.4153567,81.2301159 C17.5014077,79.4725256 17.3204178,77.6978555 17.4686841,75.948805 C17.5947307,74.4685577 17.0360049,73.9516912 15.6527244,73.7052544 C10.3704834,72.7634267 5.71201141,70.450337 1.63367695,66.9461361 C-0.426700034,65.1759393 -0.477199471,64.7863577 1.13878248,62.6465057 C2.2380542,61.1902515 3.39590527,59.7758833 4.4325577,58.2765229 C5.49142987,56.7450363 6.4917227,56.6917636 7.89803099,57.9060544 C11.7222523,61.2089579 16.1100473,63.4923613 21.2088743,63.5293675 C23.5201325,63.545634 26.07096,62.9506884 28.1058853,61.862056 C32.5676115,59.4749539 32.7372896,53.9244332 28.5514923,51.0387643 C26.5747424,49.6764488 24.2970158,48.7386877 22.1081683,47.7098345 C18.0932611,45.8225192 13.9102918,44.2536197 10.0379951,42.1117344 C3.71506171,38.6140401 0.298875862,33.148105 1.12868259,25.7277554 C1.9605093,18.292766 6.66018882,13.812578 13.2634951,11.0712738 C14.6399077,10.4999146 16.5491904,10.3039039 17.2513345,9.27220403 C17.9445908,8.25351735 17.4286886,6.39466834 17.4262646,4.90466117 C17.4177807,-0.416502551 17.0250971,0.00235863581 22.3598575,0.0104918627 C26.6054461,0.0169984443 26.6054461,0.0117118468 26.6054461,4.36583488 L26.6054461,9.67723873" id="Fill-1"></path>
                </g>
            </g>
        </g>
    </g>
</svg>