<?xml version="1.0" encoding="UTF-8" standalone="no"?>
<svg width="74px" height="68px" viewBox="0 0 74 68" version="1.1" xmlns="http://www.w3.org/2000/svg" xmlns:xlink="http://www.w3.org/1999/xlink">
    <!-- Generator: Sketch 39.1 (31720) - http://www.bohemiancoding.com/sketch -->
    <title>Product/Service</title>
    <desc>Created with Sketch.</desc>
    <defs>
        <polygon id="path-1" points="0 67.1206945 73.6990565 67.1206945 73.6990565 0 0 0"></polygon>
    </defs>
    <g id="Page-1" stroke="none" stroke-width="1" fill="none" fill-rule="evenodd">
        <g id="Full-Home-(New-Engage-Section)" transform="translate(-124.000000, -2696.000000)">
            <g id="Product/Service" transform="translate(124.000000, 2696.000000)">
                <mask id="mask-2" fill="white">
                    <use xlink:href="#path-1"></use>
                </mask>
                <g id="Clip-2"></g>
                <path d="M60.185986,64.6768088 L70.0172572,64.6768088 L70.0172572,19.5275868 L60.185986,19.5275868 L60.185986,64.6768088 Z M41.7612219,64.6768088 L51.5924931,64.6768088 L51.5924931,29.2874637 L41.7612219,29.2874637 L41.7612219,64.6768088 Z M23.3364578,64.6768088 L33.167729,64.6768088 L33.167729,39.0525626 L23.3364578,39.0525626 L23.3364578,64.6768088 Z M4.91169364,64.6768088 L14.7429649,64.6768088 L14.7429649,50.0369934 L4.91169364,50.0369934 L4.91169364,64.6768088 Z M72.4691621,64.6768088 L72.4691621,17.0837011 L57.7340811,17.0837011 L57.7340811,64.6768088 L54.044398,64.6768088 L54.044398,26.8488 L39.309317,26.8488 L39.309317,64.6768088 L35.6196338,64.6768088 L35.6196338,36.6112879 L20.8845529,36.6112879 L20.8845529,64.6768088 L17.1948697,64.6768088 L17.1948697,47.5931077 L2.45978879,47.5931077 L2.45978879,64.6768088 L1.2298944,64.6768088 C0.55187569,64.6768088 0,65.2251165 0,65.8987516 C0,66.5723868 0.55187569,67.1206945 1.2298944,67.1206945 L72.4691621,67.1206945 C73.1471808,67.1206945 73.6990565,66.5723868 73.6990565,65.8987516 C73.6990565,65.2251165 73.1471808,64.6768088 72.4691621,64.6768088 L72.4691621,64.6768088 Z" id="Fill-1" fill="#FFFFFF" mask="url(#mask-2)"></path>
                <path d="M9.86648615,30.9135877 C10.0714686,30.9135877 10.2869629,30.8613679 10.4788054,30.7464844 L55.0283135,5.19534593 L52.2400273,11.2841723 C51.9588334,11.9003657 52.2268874,12.6209987 52.8444625,12.9003745 C53.0126532,12.9734822 53.1887278,13.0074251 53.3542905,13.0074251 C53.8246989,13.0074251 54.2661994,12.7463262 54.4764378,12.2920141 L58.8493956,2.74101626 C58.8599076,2.70446242 58.8599076,2.67574154 58.8730475,2.64440967 C58.8966993,2.57913495 58.9150951,2.51386022 58.928235,2.44858549 C58.933491,2.41203165 58.9518868,2.38331077 58.9571428,2.34675692 C58.9571428,2.33631297 58.9518868,2.32325802 58.9518868,2.31020308 C58.9518868,2.26320527 58.9518868,2.22142945 58.9466309,2.17443165 C58.9466309,2.10915692 58.933491,2.0438822 58.9150951,1.97860747 C58.9098392,1.92899868 58.9019552,1.88200088 58.8914433,1.83500308 C58.8730475,1.79322725 58.8493956,1.75667341 58.8231158,1.71489758 C58.8126039,1.6861767 58.8126039,1.64962286 58.7942081,1.62090198 C58.7758122,1.59740308 58.7469044,1.57912615 58.7285086,1.54779429 C58.7048568,1.51385143 58.681205,1.4720756 58.6496692,1.43552176 C58.6207614,1.39896791 58.5787138,1.37546901 58.54455,1.34152615 C58.4946184,1.29713934 58.4394308,1.25797451 58.3868712,1.21619868 C58.3448236,1.19008879 58.3132878,1.16658989 58.2738681,1.14309099 C58.2554723,1.13786901 58.2502163,1.12481407 58.2370764,1.11959209 C58.2081686,1.10653714 58.1713769,1.10653714 58.1398412,1.10392615 C58.0741417,1.07259429 58.0084422,1.05953934 57.9374868,1.04909538 C57.908579,1.04126242 57.8822992,1.01776352 57.8481355,1.01776352 L47.3335896,0.00469978022 C46.6503149,-0.0605749451 46.0563915,0.435512967 45.9906921,1.10392615 C45.9249926,1.77495033 46.4164247,2.37286681 47.0944434,2.43814154 L53.7931631,3.08044484 L9.24891097,28.6315833 C8.66024357,28.9710119 8.45788915,29.7151437 8.7968985,30.3000053 C9.02553272,30.6942646 9.44075348,30.9135877 9.86648615,30.9135877" id="Fill-3" fill="#FFFFFF" mask="url(#mask-2)"></path>
            </g>
        </g>
    </g>
</svg>